solid OpenSCAD_Model
  facet normal -1 0 0
    outer loop
      vertex -6.1 19.0935 -11.3844
      vertex -6.1 71 -15
      vertex -6.1 0 -15
    endloop
  endfacet
  facet normal -1 0 0
    outer loop
      vertex -6.1 54.5935 -11.3844
      vertex -6.1 29.1344 -1.3435
      vertex -6.1 16.4065 11.3844
    endloop
  endfacet
  facet normal -1 0 0
    outer loop
      vertex -6.1 0 15
      vertex -6.1 6.36558 1.3435
      vertex -6.1 0 -15
    endloop
  endfacet
  facet normal -1 0 0
    outer loop
      vertex -6.1 54.5935 -11.3844
      vertex -6.1 71 -15
      vertex -6.1 19.0935 -11.3844
    endloop
  endfacet
  facet normal -1 0 0
    outer loop
      vertex -6.1 6.36558 1.3435
      vertex -6.1 19.0935 -11.3844
      vertex -6.1 0 -15
    endloop
  endfacet
  facet normal -1 0 0
    outer loop
      vertex -6.1 29.1344 -1.3435
      vertex -6.1 54.5935 -11.3844
      vertex -6.1 19.0935 -11.3844
    endloop
  endfacet
  facet normal -1 0 0
    outer loop
      vertex -6.1 64.6344 -1.3435
      vertex -6.1 71 -15
      vertex -6.1 54.5935 -11.3844
    endloop
  endfacet
  facet normal -1 0 0
    outer loop
      vertex -6.1 71 15
      vertex -6.1 16.4065 11.3844
      vertex -6.1 0 15
    endloop
  endfacet
  facet normal -1 0 0
    outer loop
      vertex -6.1 51.9065 11.3844
      vertex -6.1 71 15
      vertex -6.1 64.6344 -1.3435
    endloop
  endfacet
  facet normal -1 0 0
    outer loop
      vertex -6.1 51.9065 11.3844
      vertex -6.1 41.8656 1.3435
      vertex -6.1 16.4065 11.3844
    endloop
  endfacet
  facet normal -1 0 0
    outer loop
      vertex -6.1 54.5935 -11.3844
      vertex -6.1 16.4065 11.3844
      vertex -6.1 41.8656 1.3435
    endloop
  endfacet
  facet normal -1 0 0
    outer loop
      vertex -6.1 71 15
      vertex -6.1 71 -15
      vertex -6.1 64.6344 -1.3435
    endloop
  endfacet
  facet normal -1 0 0
    outer loop
      vertex -6.1 71 15
      vertex -6.1 51.9065 11.3844
      vertex -6.1 16.4065 11.3844
    endloop
  endfacet
  facet normal -1 0 0
    outer loop
      vertex -6.1 6.36558 1.3435
      vertex -6.1 0 15
      vertex -6.1 16.4065 11.3844
    endloop
  endfacet
  facet normal 0 -1 0
    outer loop
      vertex -4.69444 0 0
      vertex -6.1 0 -15
      vertex -0.5 0 -15
    endloop
  endfacet
  facet normal 0 -1 0
    outer loop
      vertex -2.34722 0 4.06551
      vertex -0.5 0 4.06551
      vertex -6.1 0 15
    endloop
  endfacet
  facet normal 0 -1 0
    outer loop
      vertex -6.1 0 15
      vertex -6.1 0 -15
      vertex -4.69444 0 0
    endloop
  endfacet
  facet normal 0 -1 0
    outer loop
      vertex -0.5 0 15
      vertex -6.1 0 15
      vertex -0.5 0 4.06551
    endloop
  endfacet
  facet normal 0 -1 0
    outer loop
      vertex -4.69444 0 0
      vertex -2.34722 0 4.06551
      vertex -6.1 0 15
    endloop
  endfacet
  facet normal 0 -1 0
    outer loop
      vertex -0.5 0 0
      vertex -4.69444 0 0
      vertex -0.5 0 -15
    endloop
  endfacet
  facet normal 0 0 -1
    outer loop
      vertex -0.5 3.2 -15
      vertex -0.5 0 -15
      vertex -4.5 3.2 -15
    endloop
  endfacet
  facet normal 0 0 -1
    outer loop
      vertex -4.5 71 -15
      vertex -5.07196 74.389 -15
      vertex -4.71536 74.8698 -15
    endloop
  endfacet
  facet normal 0 0 -1
    outer loop
      vertex -4.30623 72.3063 -15
      vertex -4.71536 74.8698 -15
      vertex -4.31335 75.3134 -15
    endloop
  endfacet
  facet normal 0 0 -1
    outer loop
      vertex -3.96865 73.1213 -15
      vertex -4.31335 75.3134 -15
      vertex -3.8698 75.7154 -15
    endloop
  endfacet
  facet normal 0 0 -1
    outer loop
      vertex -3.47855 73.8548 -15
      vertex -3.8698 75.7154 -15
      vertex -3.38898 76.072 -15
    endloop
  endfacet
  facet normal 0 0 -1
    outer loop
      vertex -2.85477 74.4785 -15
      vertex -3.38898 76.072 -15
      vertex -2.87552 76.3797 -15
    endloop
  endfacet
  facet normal 0 0 -1
    outer loop
      vertex -2.50007 74.7416 -15
      vertex -2.87552 76.3797 -15
      vertex -2.33437 76.6357 -15
    endloop
  endfacet
  facet normal 0 0 -1
    outer loop
      vertex -2.12128 74.9686 -15
      vertex -2.33437 76.6357 -15
      vertex -1.77074 76.8373 -15
    endloop
  endfacet
  facet normal 0 0 -1
    outer loop
      vertex -1.30628 75.3062 -15
      vertex -1.77074 76.8373 -15
      vertex -1.19005 76.9828 -15
    endloop
  endfacet
  facet normal 0 0 -1
    outer loop
      vertex -0.877906 75.4135 -15
      vertex -1.19005 76.9828 -15
      vertex -0.597905 77.0706 -15
    endloop
  endfacet
  facet normal 0 0 -1
    outer loop
      vertex -0.441077 75.4783 -15
      vertex -0.597905 77.0706 -15
      vertex 0 77.1 -15
    endloop
  endfacet
  facet normal 0 0 -1
    outer loop
      vertex 0.441077 75.4783 -15
      vertex 0 77.1 -15
      vertex 0.597905 77.0706 -15
    endloop
  endfacet
  facet normal 0 0 -1
    outer loop
      vertex 0.877906 75.4135 -15
      vertex 0.597905 77.0706 -15
      vertex 1.19005 76.9828 -15
    endloop
  endfacet
  facet normal 0 0 -1
    outer loop
      vertex 1.30628 75.3062 -15
      vertex 1.19005 76.9828 -15
      vertex 1.77074 76.8373 -15
    endloop
  endfacet
  facet normal 0 0 -1
    outer loop
      vertex 2.12128 74.9686 -15
      vertex 1.77074 76.8373 -15
      vertex 2.33437 76.6357 -15
    endloop
  endfacet
  facet normal 0 0 -1
    outer loop
      vertex 2.50007 74.7416 -15
      vertex 2.33437 76.6357 -15
      vertex 2.87552 76.3797 -15
    endloop
  endfacet
  facet normal 0 0 -1
    outer loop
      vertex 3.18198 74.182 -15
      vertex 2.87552 76.3797 -15
      vertex 3.38898 76.072 -15
    endloop
  endfacet
  facet normal 0 0 -1
    outer loop
      vertex 3.74161 73.5001 -15
      vertex 3.38898 76.072 -15
      vertex 3.8698 75.7154 -15
    endloop
  endfacet
  facet normal 0 0 -1
    outer loop
      vertex 3.96865 73.1213 -15
      vertex 3.8698 75.7154 -15
      vertex 4.31335 75.3134 -15
    endloop
  endfacet
  facet normal 0 0 -1
    outer loop
      vertex 4.41353 71.8779 -15
      vertex 4.31335 75.3134 -15
      vertex 4.71536 74.8698 -15
    endloop
  endfacet
  facet normal 0 0 -1
    outer loop
      vertex 4.5 71 -15
      vertex 4.71536 74.8698 -15
      vertex 5.07196 74.389 -15
    endloop
  endfacet
  facet normal 0 0 -1
    outer loop
      vertex 4.5 3.2 -15
      vertex 6.1 71 -15
      vertex 6.1 0 -15
    endloop
  endfacet
  facet normal 0 0 -1
    outer loop
      vertex 4.5 3.2 -15
      vertex -0.3 0 -15
      vertex -0.3 3.2 -15
    endloop
  endfacet
  facet normal 0 0 -1
    outer loop
      vertex 4.5 71 -15
      vertex 5.07196 74.389 -15
      vertex 5.37972 73.8755 -15
    endloop
  endfacet
  facet normal 0 0 -1
    outer loop
      vertex -0.3 0 -15
      vertex 4.5 3.2 -15
      vertex 6.1 0 -15
    endloop
  endfacet
  facet normal 0 0 -1
    outer loop
      vertex 4.47833 71.4411 -15
      vertex 4.71536 74.8698 -15
      vertex 4.5 71 -15
    endloop
  endfacet
  facet normal 0 0 -1
    outer loop
      vertex 4.5 71 -15
      vertex 6.1 71 -15
      vertex 4.5 3.2 -15
    endloop
  endfacet
  facet normal 0 0 -1
    outer loop
      vertex 4.5 71 -15
      vertex 6.07063 71.5979 -15
      vertex 6.1 71 -15
    endloop
  endfacet
  facet normal 0 0 -1
    outer loop
      vertex 4.30623 72.3063 -15
      vertex 4.31335 75.3134 -15
      vertex 4.41353 71.8779 -15
    endloop
  endfacet
  facet normal 0 0 -1
    outer loop
      vertex 4.5 71 -15
      vertex 5.98279 72.1901 -15
      vertex 6.07063 71.5979 -15
    endloop
  endfacet
  facet normal 0 0 -1
    outer loop
      vertex 4.15746 72.7221 -15
      vertex 4.31335 75.3134 -15
      vertex 4.30623 72.3063 -15
    endloop
  endfacet
  facet normal 0 0 -1
    outer loop
      vertex 4.5 71 -15
      vertex 5.83734 72.7707 -15
      vertex 5.98279 72.1901 -15
    endloop
  endfacet
  facet normal 0 0 -1
    outer loop
      vertex 4.5 71 -15
      vertex 5.63566 73.3344 -15
      vertex 5.83734 72.7707 -15
    endloop
  endfacet
  facet normal 0 0 -1
    outer loop
      vertex 3.74161 73.5001 -15
      vertex 3.8698 75.7154 -15
      vertex 3.96865 73.1213 -15
    endloop
  endfacet
  facet normal 0 0 -1
    outer loop
      vertex 3.47855 73.8548 -15
      vertex 3.38898 76.072 -15
      vertex 3.74161 73.5001 -15
    endloop
  endfacet
  facet normal 0 0 -1
    outer loop
      vertex 3.18198 74.182 -15
      vertex 3.38898 76.072 -15
      vertex 3.47855 73.8548 -15
    endloop
  endfacet
  facet normal 0 0 -1
    outer loop
      vertex 2.85477 74.4785 -15
      vertex 2.87552 76.3797 -15
      vertex 3.18198 74.182 -15
    endloop
  endfacet
  facet normal 0 0 -1
    outer loop
      vertex 2.50007 74.7416 -15
      vertex 2.87552 76.3797 -15
      vertex 2.85477 74.4785 -15
    endloop
  endfacet
  facet normal 0 0 -1
    outer loop
      vertex 2.12128 74.9686 -15
      vertex 2.33437 76.6357 -15
      vertex 2.50007 74.7416 -15
    endloop
  endfacet
  facet normal 0 0 -1
    outer loop
      vertex 1.72208 75.1575 -15
      vertex 1.77074 76.8373 -15
      vertex 2.12128 74.9686 -15
    endloop
  endfacet
  facet normal 0 0 -1
    outer loop
      vertex 1.30628 75.3062 -15
      vertex 1.77074 76.8373 -15
      vertex 1.72208 75.1575 -15
    endloop
  endfacet
  facet normal 0 0 -1
    outer loop
      vertex 0.877906 75.4135 -15
      vertex 1.19005 76.9828 -15
      vertex 1.30628 75.3062 -15
    endloop
  endfacet
  facet normal 0 0 -1
    outer loop
      vertex 0.441077 75.4783 -15
      vertex 0.597905 77.0706 -15
      vertex 0.877906 75.4135 -15
    endloop
  endfacet
  facet normal 0 0 -1
    outer loop
      vertex 0 75.5 -15
      vertex 0 77.1 -15
      vertex 0.441077 75.4783 -15
    endloop
  endfacet
  facet normal 0 0 -1
    outer loop
      vertex -0.441077 75.4783 -15
      vertex 0 77.1 -15
      vertex 0 75.5 -15
    endloop
  endfacet
  facet normal 0 0 -1
    outer loop
      vertex -4.5 3.2 -15
      vertex -6.07063 71.5979 -15
      vertex -5.98279 72.1901 -15
    endloop
  endfacet
  facet normal 0 0 -1
    outer loop
      vertex -0.877906 75.4135 -15
      vertex -0.597905 77.0706 -15
      vertex -0.441077 75.4783 -15
    endloop
  endfacet
  facet normal 0 0 -1
    outer loop
      vertex -1.30628 75.3062 -15
      vertex -1.19005 76.9828 -15
      vertex -0.877906 75.4135 -15
    endloop
  endfacet
  facet normal 0 0 -1
    outer loop
      vertex -1.72208 75.1575 -15
      vertex -1.77074 76.8373 -15
      vertex -1.30628 75.3062 -15
    endloop
  endfacet
  facet normal 0 0 -1
    outer loop
      vertex -2.12128 74.9686 -15
      vertex -1.77074 76.8373 -15
      vertex -1.72208 75.1575 -15
    endloop
  endfacet
  facet normal 0 0 -1
    outer loop
      vertex -2.50007 74.7416 -15
      vertex -2.33437 76.6357 -15
      vertex -2.12128 74.9686 -15
    endloop
  endfacet
  facet normal 0 0 -1
    outer loop
      vertex -2.85477 74.4785 -15
      vertex -2.87552 76.3797 -15
      vertex -2.50007 74.7416 -15
    endloop
  endfacet
  facet normal 0 0 -1
    outer loop
      vertex -3.18198 74.182 -15
      vertex -3.38898 76.072 -15
      vertex -2.85477 74.4785 -15
    endloop
  endfacet
  facet normal 0 0 -1
    outer loop
      vertex -3.47855 73.8548 -15
      vertex -3.38898 76.072 -15
      vertex -3.18198 74.182 -15
    endloop
  endfacet
  facet normal 0 0 -1
    outer loop
      vertex -3.74161 73.5001 -15
      vertex -3.8698 75.7154 -15
      vertex -3.47855 73.8548 -15
    endloop
  endfacet
  facet normal 0 0 -1
    outer loop
      vertex -3.96865 73.1213 -15
      vertex -3.8698 75.7154 -15
      vertex -3.74161 73.5001 -15
    endloop
  endfacet
  facet normal 0 0 -1
    outer loop
      vertex -4.15746 72.7221 -15
      vertex -4.31335 75.3134 -15
      vertex -3.96865 73.1213 -15
    endloop
  endfacet
  facet normal 0 0 -1
    outer loop
      vertex -4.30623 72.3063 -15
      vertex -4.31335 75.3134 -15
      vertex -4.15746 72.7221 -15
    endloop
  endfacet
  facet normal 0 0 -1
    outer loop
      vertex -4.41353 71.8779 -15
      vertex -4.71536 74.8698 -15
      vertex -4.30623 72.3063 -15
    endloop
  endfacet
  facet normal 0 0 -1
    outer loop
      vertex -4.5 71 -15
      vertex -4.71536 74.8698 -15
      vertex -4.47833 71.4411 -15
    endloop
  endfacet
  facet normal 0 0 -1
    outer loop
      vertex -4.47833 71.4411 -15
      vertex -4.71536 74.8698 -15
      vertex -4.41353 71.8779 -15
    endloop
  endfacet
  facet normal 0 0 -1
    outer loop
      vertex -4.5 3.2 -15
      vertex -6.1 71 -15
      vertex -6.07063 71.5979 -15
    endloop
  endfacet
  facet normal 0 0 -1
    outer loop
      vertex -6.1 0 -15
      vertex -6.1 71 -15
      vertex -4.5 3.2 -15
    endloop
  endfacet
  facet normal 0 0 -1
    outer loop
      vertex -6.1 0 -15
      vertex -4.5 3.2 -15
      vertex -0.5 0 -15
    endloop
  endfacet
  facet normal 0 0 -1
    outer loop
      vertex 3.96865 73.1213 -15
      vertex 4.31335 75.3134 -15
      vertex 4.15746 72.7221 -15
    endloop
  endfacet
  facet normal 0 0 -1
    outer loop
      vertex 4.41353 71.8779 -15
      vertex 4.71536 74.8698 -15
      vertex 4.47833 71.4411 -15
    endloop
  endfacet
  facet normal 0 0 -1
    outer loop
      vertex -4.5 3.2 -15
      vertex -5.98279 72.1901 -15
      vertex -5.83734 72.7707 -15
    endloop
  endfacet
  facet normal 0 0 -1
    outer loop
      vertex -4.5 3.2 -15
      vertex -5.83734 72.7707 -15
      vertex -5.63566 73.3344 -15
    endloop
  endfacet
  facet normal 0 0 -1
    outer loop
      vertex -4.5 3.2 -15
      vertex -5.63566 73.3344 -15
      vertex -5.37972 73.8755 -15
    endloop
  endfacet
  facet normal 0 0 -1
    outer loop
      vertex -4.5 3.2 -15
      vertex -5.37972 73.8755 -15
      vertex -5.07196 74.389 -15
    endloop
  endfacet
  facet normal 0 0 -1
    outer loop
      vertex -4.5 3.2 -15
      vertex -5.07196 74.389 -15
      vertex -4.5 71 -15
    endloop
  endfacet
  facet normal 0 0 -1
    outer loop
      vertex 4.5 71 -15
      vertex 5.37972 73.8755 -15
      vertex 5.63566 73.3344 -15
    endloop
  endfacet
  facet normal 0 0 1
    outer loop
      vertex -4.5 3.2 15
      vertex -6.1 0 15
      vertex -0.5 0 15
    endloop
  endfacet
  facet normal 0 0 1
    outer loop
      vertex -6.1 71 15
      vertex -6.1 0 15
      vertex -4.5 3.2 15
    endloop
  endfacet
  facet normal 0 0 1
    outer loop
      vertex 0 77.1 15
      vertex -3.18198 74.182 15
      vertex -2.85477 74.4785 15
    endloop
  endfacet
  facet normal 0 0 1
    outer loop
      vertex 0.597905 77.0706 15
      vertex -2.85477 74.4785 15
      vertex -2.50007 74.7416 15
    endloop
  endfacet
  facet normal 0 0 1
    outer loop
      vertex 1.19005 76.9828 15
      vertex -2.50007 74.7416 15
      vertex -2.12128 74.9686 15
    endloop
  endfacet
  facet normal 0 0 1
    outer loop
      vertex 1.77074 76.8373 15
      vertex -2.12128 74.9686 15
      vertex -1.72208 75.1575 15
    endloop
  endfacet
  facet normal 0 0 1
    outer loop
      vertex 2.33437 76.6357 15
      vertex -1.72208 75.1575 15
      vertex -1.30628 75.3062 15
    endloop
  endfacet
  facet normal 0 0 1
    outer loop
      vertex 2.87552 76.3797 15
      vertex -1.30628 75.3062 15
      vertex -0.877906 75.4135 15
    endloop
  endfacet
  facet normal 0 0 1
    outer loop
      vertex 3.38898 76.072 15
      vertex -0.877906 75.4135 15
      vertex -0.441077 75.4783 15
    endloop
  endfacet
  facet normal 0 0 1
    outer loop
      vertex 3.8698 75.7154 15
      vertex -0.441077 75.4783 15
      vertex 0 75.5 15
    endloop
  endfacet
  facet normal 0 0 1
    outer loop
      vertex 4.31335 75.3134 15
      vertex 0 75.5 15
      vertex 0.441077 75.4783 15
    endloop
  endfacet
  facet normal 0 0 1
    outer loop
      vertex 4.71536 74.8698 15
      vertex 0.441077 75.4783 15
      vertex 0.877906 75.4135 15
    endloop
  endfacet
  facet normal 0 0 1
    outer loop
      vertex 5.07196 74.389 15
      vertex 0.877906 75.4135 15
      vertex 1.30628 75.3062 15
    endloop
  endfacet
  facet normal 0 0 1
    outer loop
      vertex 5.37972 73.8755 15
      vertex 1.30628 75.3062 15
      vertex 1.72208 75.1575 15
    endloop
  endfacet
  facet normal 0 0 1
    outer loop
      vertex 5.63566 73.3344 15
      vertex 1.72208 75.1575 15
      vertex 2.12128 74.9686 15
    endloop
  endfacet
  facet normal 0 0 1
    outer loop
      vertex 5.83734 72.7707 15
      vertex 2.12128 74.9686 15
      vertex 2.50007 74.7416 15
    endloop
  endfacet
  facet normal 0 0 1
    outer loop
      vertex 5.98279 72.1901 15
      vertex 2.50007 74.7416 15
      vertex 2.85477 74.4785 15
    endloop
  endfacet
  facet normal 0 0 1
    outer loop
      vertex 6.07063 71.5979 15
      vertex 2.85477 74.4785 15
      vertex 3.18198 74.182 15
    endloop
  endfacet
  facet normal 0 0 1
    outer loop
      vertex -6.07063 71.5979 15
      vertex -5.83734 72.7707 15
      vertex -5.98279 72.1901 15
    endloop
  endfacet
  facet normal 0 0 1
    outer loop
      vertex -6.07063 71.5979 15
      vertex -5.63566 73.3344 15
      vertex -5.83734 72.7707 15
    endloop
  endfacet
  facet normal 0 0 1
    outer loop
      vertex -6.07063 71.5979 15
      vertex -5.37972 73.8755 15
      vertex -5.63566 73.3344 15
    endloop
  endfacet
  facet normal 0 0 1
    outer loop
      vertex -0.3 3.2 15
      vertex -0.3 0 15
      vertex 4.5 3.2 15
    endloop
  endfacet
  facet normal 0 0 1
    outer loop
      vertex -6.07063 71.5979 15
      vertex -5.07196 74.389 15
      vertex -5.37972 73.8755 15
    endloop
  endfacet
  facet normal 0 0 1
    outer loop
      vertex 6.1 71 15
      vertex 4.30623 72.3063 15
      vertex 4.41353 71.8779 15
    endloop
  endfacet
  facet normal 0 0 1
    outer loop
      vertex -6.07063 71.5979 15
      vertex -4.71536 74.8698 15
      vertex -5.07196 74.389 15
    endloop
  endfacet
  facet normal 0 0 1
    outer loop
      vertex 6.1 71 15
      vertex 4.15746 72.7221 15
      vertex 4.30623 72.3063 15
    endloop
  endfacet
  facet normal 0 0 1
    outer loop
      vertex -6.07063 71.5979 15
      vertex -4.31335 75.3134 15
      vertex -4.71536 74.8698 15
    endloop
  endfacet
  facet normal 0 0 1
    outer loop
      vertex 6.1 71 15
      vertex 3.96865 73.1213 15
      vertex 4.15746 72.7221 15
    endloop
  endfacet
  facet normal 0 0 1
    outer loop
      vertex -6.07063 71.5979 15
      vertex -3.8698 75.7154 15
      vertex -4.31335 75.3134 15
    endloop
  endfacet
  facet normal 0 0 1
    outer loop
      vertex 6.1 71 15
      vertex 3.74161 73.5001 15
      vertex 3.96865 73.1213 15
    endloop
  endfacet
  facet normal 0 0 1
    outer loop
      vertex 6.1 71 15
      vertex 4.47833 71.4411 15
      vertex 4.5 71 15
    endloop
  endfacet
  facet normal 0 0 1
    outer loop
      vertex 6.1 0 15
      vertex 4.5 71 15
      vertex 4.5 3.2 15
    endloop
  endfacet
  facet normal 0 0 1
    outer loop
      vertex 6.1 0 15
      vertex 4.5 3.2 15
      vertex -0.3 0 15
    endloop
  endfacet
  facet normal 0 0 1
    outer loop
      vertex 6.1 71 15
      vertex 4.5 71 15
      vertex 6.1 0 15
    endloop
  endfacet
  facet normal 0 0 1
    outer loop
      vertex -6.07063 71.5979 15
      vertex -3.38898 76.072 15
      vertex -3.8698 75.7154 15
    endloop
  endfacet
  facet normal 0 0 1
    outer loop
      vertex 5.98279 72.1901 15
      vertex 2.85477 74.4785 15
      vertex 6.07063 71.5979 15
    endloop
  endfacet
  facet normal 0 0 1
    outer loop
      vertex 5.83734 72.7707 15
      vertex 2.50007 74.7416 15
      vertex 5.98279 72.1901 15
    endloop
  endfacet
  facet normal 0 0 1
    outer loop
      vertex 5.63566 73.3344 15
      vertex 2.12128 74.9686 15
      vertex 5.83734 72.7707 15
    endloop
  endfacet
  facet normal 0 0 1
    outer loop
      vertex 5.37972 73.8755 15
      vertex 1.72208 75.1575 15
      vertex 5.63566 73.3344 15
    endloop
  endfacet
  facet normal 0 0 1
    outer loop
      vertex 5.07196 74.389 15
      vertex 1.30628 75.3062 15
      vertex 5.37972 73.8755 15
    endloop
  endfacet
  facet normal 0 0 1
    outer loop
      vertex 4.71536 74.8698 15
      vertex 0.877906 75.4135 15
      vertex 5.07196 74.389 15
    endloop
  endfacet
  facet normal 0 0 1
    outer loop
      vertex 4.31335 75.3134 15
      vertex 0.441077 75.4783 15
      vertex 4.71536 74.8698 15
    endloop
  endfacet
  facet normal 0 0 1
    outer loop
      vertex 3.8698 75.7154 15
      vertex 0 75.5 15
      vertex 4.31335 75.3134 15
    endloop
  endfacet
  facet normal 0 0 1
    outer loop
      vertex 3.38898 76.072 15
      vertex -0.441077 75.4783 15
      vertex 3.8698 75.7154 15
    endloop
  endfacet
  facet normal 0 0 1
    outer loop
      vertex 2.87552 76.3797 15
      vertex -0.877906 75.4135 15
      vertex 3.38898 76.072 15
    endloop
  endfacet
  facet normal 0 0 1
    outer loop
      vertex 2.33437 76.6357 15
      vertex -1.30628 75.3062 15
      vertex 2.87552 76.3797 15
    endloop
  endfacet
  facet normal 0 0 1
    outer loop
      vertex 1.77074 76.8373 15
      vertex -1.72208 75.1575 15
      vertex 2.33437 76.6357 15
    endloop
  endfacet
  facet normal 0 0 1
    outer loop
      vertex 1.19005 76.9828 15
      vertex -2.12128 74.9686 15
      vertex 1.77074 76.8373 15
    endloop
  endfacet
  facet normal 0 0 1
    outer loop
      vertex 0.597905 77.0706 15
      vertex -2.50007 74.7416 15
      vertex 1.19005 76.9828 15
    endloop
  endfacet
  facet normal 0 0 1
    outer loop
      vertex 0 77.1 15
      vertex -2.85477 74.4785 15
      vertex 0.597905 77.0706 15
    endloop
  endfacet
  facet normal 0 0 1
    outer loop
      vertex -0.597905 77.0706 15
      vertex -3.18198 74.182 15
      vertex 0 77.1 15
    endloop
  endfacet
  facet normal 0 0 1
    outer loop
      vertex -4.47833 71.4411 15
      vertex -6.1 71 15
      vertex -4.5 71 15
    endloop
  endfacet
  facet normal 0 0 1
    outer loop
      vertex -0.5 3.2 15
      vertex -4.5 3.2 15
      vertex -0.5 0 15
    endloop
  endfacet
  facet normal 0 0 1
    outer loop
      vertex -4.5 3.2 15
      vertex -4.5 71 15
      vertex -6.1 71 15
    endloop
  endfacet
  facet normal 0 0 1
    outer loop
      vertex 6.1 71 15
      vertex 4.41353 71.8779 15
      vertex 4.47833 71.4411 15
    endloop
  endfacet
  facet normal 0 0 1
    outer loop
      vertex 6.1 71 15
      vertex 3.47855 73.8548 15
      vertex 3.74161 73.5001 15
    endloop
  endfacet
  facet normal 0 0 1
    outer loop
      vertex 6.1 71 15
      vertex 3.18198 74.182 15
      vertex 3.47855 73.8548 15
    endloop
  endfacet
  facet normal 0 0 1
    outer loop
      vertex 6.1 71 15
      vertex 6.07063 71.5979 15
      vertex 3.18198 74.182 15
    endloop
  endfacet
  facet normal 0 0 1
    outer loop
      vertex -6.07063 71.5979 15
      vertex -2.87552 76.3797 15
      vertex -3.38898 76.072 15
    endloop
  endfacet
  facet normal 0 0 1
    outer loop
      vertex -6.07063 71.5979 15
      vertex -2.33437 76.6357 15
      vertex -2.87552 76.3797 15
    endloop
  endfacet
  facet normal 0 0 1
    outer loop
      vertex -6.07063 71.5979 15
      vertex -1.77074 76.8373 15
      vertex -2.33437 76.6357 15
    endloop
  endfacet
  facet normal 0 0 1
    outer loop
      vertex -6.07063 71.5979 15
      vertex -1.19005 76.9828 15
      vertex -1.77074 76.8373 15
    endloop
  endfacet
  facet normal 0 0 1
    outer loop
      vertex -6.07063 71.5979 15
      vertex -0.597905 77.0706 15
      vertex -1.19005 76.9828 15
    endloop
  endfacet
  facet normal 0 0 1
    outer loop
      vertex -6.07063 71.5979 15
      vertex -3.18198 74.182 15
      vertex -0.597905 77.0706 15
    endloop
  endfacet
  facet normal 0 0 1
    outer loop
      vertex -6.07063 71.5979 15
      vertex -3.47855 73.8548 15
      vertex -3.18198 74.182 15
    endloop
  endfacet
  facet normal 0 0 1
    outer loop
      vertex -6.07063 71.5979 15
      vertex -3.74161 73.5001 15
      vertex -3.47855 73.8548 15
    endloop
  endfacet
  facet normal 0 0 1
    outer loop
      vertex -6.07063 71.5979 15
      vertex -3.96865 73.1213 15
      vertex -3.74161 73.5001 15
    endloop
  endfacet
  facet normal 0 0 1
    outer loop
      vertex -6.07063 71.5979 15
      vertex -4.15746 72.7221 15
      vertex -3.96865 73.1213 15
    endloop
  endfacet
  facet normal 0 0 1
    outer loop
      vertex -6.07063 71.5979 15
      vertex -4.30623 72.3063 15
      vertex -4.15746 72.7221 15
    endloop
  endfacet
  facet normal 0 0 1
    outer loop
      vertex -6.07063 71.5979 15
      vertex -4.41353 71.8779 15
      vertex -4.30623 72.3063 15
    endloop
  endfacet
  facet normal 0 0 1
    outer loop
      vertex -6.07063 71.5979 15
      vertex -4.47833 71.4411 15
      vertex -4.41353 71.8779 15
    endloop
  endfacet
  facet normal 0 0 1
    outer loop
      vertex -6.07063 71.5979 15
      vertex -6.1 71 15
      vertex -4.47833 71.4411 15
    endloop
  endfacet
  facet normal 0 0.707107 -0.707107
    outer loop
      vertex -4.5 16.4065 11.3844
      vertex -4.5 6.36558 1.3435
      vertex -6.1 16.4065 11.3844
    endloop
  endfacet
  facet normal 0 0.707107 -0.707107
    outer loop
      vertex -6.1 16.4065 11.3844
      vertex -4.5 6.36558 1.3435
      vertex -6.1 6.36558 1.3435
    endloop
  endfacet
  facet normal 0 0.707107 0.707107
    outer loop
      vertex -4.5 6.36558 1.3435
      vertex -4.5 19.0935 -11.3844
      vertex -6.1 19.0935 -11.3844
    endloop
  endfacet
  facet normal 0 0.707107 0.707107
    outer loop
      vertex -6.1 6.36558 1.3435
      vertex -4.5 6.36558 1.3435
      vertex -6.1 19.0935 -11.3844
    endloop
  endfacet
  facet normal 0 -0.707107 -0.707107
    outer loop
      vertex -4.5 29.1344 -1.3435
      vertex -4.5 16.4065 11.3844
      vertex -6.1 29.1344 -1.3435
    endloop
  endfacet
  facet normal 0 -0.707107 -0.707107
    outer loop
      vertex -6.1 29.1344 -1.3435
      vertex -4.5 16.4065 11.3844
      vertex -6.1 16.4065 11.3844
    endloop
  endfacet
  facet normal 0 -0.707107 0.707107
    outer loop
      vertex -4.5 19.0935 -11.3844
      vertex -4.5 29.1344 -1.3435
      vertex -6.1 29.1344 -1.3435
    endloop
  endfacet
  facet normal 0 -0.707107 0.707107
    outer loop
      vertex -6.1 19.0935 -11.3844
      vertex -4.5 19.0935 -11.3844
      vertex -6.1 29.1344 -1.3435
    endloop
  endfacet
  facet normal 0 0.707107 -0.707107
    outer loop
      vertex -4.5 51.9065 11.3844
      vertex -4.5 41.8656 1.3435
      vertex -6.1 51.9065 11.3844
    endloop
  endfacet
  facet normal 0 0.707107 -0.707107
    outer loop
      vertex -6.1 51.9065 11.3844
      vertex -4.5 41.8656 1.3435
      vertex -6.1 41.8656 1.3435
    endloop
  endfacet
  facet normal 0 0.707107 0.707107
    outer loop
      vertex -4.5 41.8656 1.3435
      vertex -4.5 54.5935 -11.3844
      vertex -6.1 54.5935 -11.3844
    endloop
  endfacet
  facet normal 0 0.707107 0.707107
    outer loop
      vertex -6.1 41.8656 1.3435
      vertex -4.5 41.8656 1.3435
      vertex -6.1 54.5935 -11.3844
    endloop
  endfacet
  facet normal 0 -0.707107 -0.707107
    outer loop
      vertex -4.5 64.6344 -1.3435
      vertex -4.5 51.9065 11.3844
      vertex -6.1 64.6344 -1.3435
    endloop
  endfacet
  facet normal 0 -0.707107 -0.707107
    outer loop
      vertex -6.1 64.6344 -1.3435
      vertex -4.5 51.9065 11.3844
      vertex -6.1 51.9065 11.3844
    endloop
  endfacet
  facet normal 0 -0.707107 0.707107
    outer loop
      vertex -4.5 54.5935 -11.3844
      vertex -4.5 64.6344 -1.3435
      vertex -6.1 64.6344 -1.3435
    endloop
  endfacet
  facet normal 0 -0.707107 0.707107
    outer loop
      vertex -6.1 54.5935 -11.3844
      vertex -4.5 54.5935 -11.3844
      vertex -6.1 64.6344 -1.3435
    endloop
  endfacet
  facet normal 1 0 0
    outer loop
      vertex -0.5 -10 -4.06551
      vertex -0.5 -9.02724e-16 -4.06551
      vertex -0.5 0 0
    endloop
  endfacet
  facet normal 1 0 0
    outer loop
      vertex -0.5 0 4.06551
      vertex -0.5 -10 -4.06551
      vertex -0.5 0 0
    endloop
  endfacet
  facet normal 1 0 0
    outer loop
      vertex -0.5 0 0
      vertex -0.5 0 -15
      vertex -0.5 3.2 -15
    endloop
  endfacet
  facet normal 1 0 0
    outer loop
      vertex -0.5 0 0
      vertex -0.5 3.2 -15
      vertex -0.5 3.2 15
    endloop
  endfacet
  facet normal 1 0 0
    outer loop
      vertex -0.5 0 4.06551
      vertex -0.5 -10 4.06551
      vertex -0.5 -10 -4.06551
    endloop
  endfacet
  facet normal 1 0 0
    outer loop
      vertex -0.5 3.2 15
      vertex -0.5 0 4.06551
      vertex -0.5 0 0
    endloop
  endfacet
  facet normal 1 0 0
    outer loop
      vertex -0.5 -10 -4.06551
      vertex -0.5 -10 4.06551
      vertex -0.5 -17.6944 3.25241
    endloop
  endfacet
  facet normal 1 0 0
    outer loop
      vertex -0.5 0 15
      vertex -0.5 0 4.06551
      vertex -0.5 3.2 15
    endloop
  endfacet
  facet normal 1 0 0
    outer loop
      vertex -0.5 -17.6944 -3.25241
      vertex -0.5 -10 -4.06551
      vertex -0.5 -17.6944 3.25241
    endloop
  endfacet
  facet normal 0 2.22045e-16 1
    outer loop
      vertex -2.34722 0 4.06551
      vertex -2.34722 -10 4.06551
      vertex -0.5 -10 4.06551
    endloop
  endfacet
  facet normal 0 2.22045e-16 1
    outer loop
      vertex -0.5 0 4.06551
      vertex -2.34722 0 4.06551
      vertex -0.5 -10 4.06551
    endloop
  endfacet
  facet normal -0.866025 1.11022e-16 0.5
    outer loop
      vertex -4.69444 -10 2.22045e-15
      vertex -2.34722 -10 4.06551
      vertex -4.69444 0 0
    endloop
  endfacet
  facet normal -0.866025 1.11022e-16 0.5
    outer loop
      vertex -4.69444 0 0
      vertex -2.34722 -10 4.06551
      vertex -2.34722 0 4.06551
    endloop
  endfacet
  facet normal -0.866025 -1.11022e-16 -0.5
    outer loop
      vertex -4.69444 -10 2.22045e-15
      vertex -4.69444 0 0
      vertex -2.34722 -10 -4.06551
    endloop
  endfacet
  facet normal -0.866025 -1.11022e-16 -0.5
    outer loop
      vertex -2.34722 -10 -4.06551
      vertex -4.69444 0 0
      vertex -2.34722 -9.02724e-16 -4.06551
    endloop
  endfacet
  facet normal 0 1 -2.22045e-16
    outer loop
      vertex -4.69444 0 0
      vertex -0.5 0 0
      vertex -2.34722 -9.02724e-16 -4.06551
    endloop
  endfacet
  facet normal 0 1 -2.22045e-16
    outer loop
      vertex -2.34722 -9.02724e-16 -4.06551
      vertex -0.5 0 0
      vertex -0.5 -9.02724e-16 -4.06551
    endloop
  endfacet
  facet normal 0 1 0
    outer loop
      vertex -4.5 3.2 -15
      vertex -4.5 3.2 15
      vertex -0.5 3.2 -15
    endloop
  endfacet
  facet normal 0 1 0
    outer loop
      vertex -0.5 3.2 -15
      vertex -4.5 3.2 15
      vertex -0.5 3.2 15
    endloop
  endfacet
  facet normal 1 0 0
    outer loop
      vertex -4.5 16.4065 11.3844
      vertex -4.5 71 15
      vertex -4.5 3.2 15
    endloop
  endfacet
  facet normal 1 0 0
    outer loop
      vertex -4.5 19.0935 -11.3844
      vertex -4.5 6.36558 1.3435
      vertex -4.5 3.2 -15
    endloop
  endfacet
  facet normal 1 0 0
    outer loop
      vertex -4.5 51.9065 11.3844
      vertex -4.5 71 15
      vertex -4.5 16.4065 11.3844
    endloop
  endfacet
  facet normal 1 0 0
    outer loop
      vertex -4.5 54.5935 -11.3844
      vertex -4.5 41.8656 1.3435
      vertex -4.5 16.4065 11.3844
    endloop
  endfacet
  facet normal 1 0 0
    outer loop
      vertex -4.5 3.2 -15
      vertex -4.5 71 -15
      vertex -4.5 19.0935 -11.3844
    endloop
  endfacet
  facet normal 1 0 0
    outer loop
      vertex -4.5 3.2 -15
      vertex -4.5 6.36558 1.3435
      vertex -4.5 3.2 15
    endloop
  endfacet
  facet normal 1 0 0
    outer loop
      vertex -4.5 54.5935 -11.3844
      vertex -4.5 16.4065 11.3844
      vertex -4.5 29.1344 -1.3435
    endloop
  endfacet
  facet normal 1 0 0
    outer loop
      vertex -4.5 41.8656 1.3435
      vertex -4.5 51.9065 11.3844
      vertex -4.5 16.4065 11.3844
    endloop
  endfacet
  facet normal 1 0 0
    outer loop
      vertex -4.5 64.6344 -1.3435
      vertex -4.5 71 15
      vertex -4.5 51.9065 11.3844
    endloop
  endfacet
  facet normal 1 0 0
    outer loop
      vertex -4.5 71 -15
      vertex -4.5 71 15
      vertex -4.5 64.6344 -1.3435
    endloop
  endfacet
  facet normal 1 0 0
    outer loop
      vertex -4.5 19.0935 -11.3844
      vertex -4.5 54.5935 -11.3844
      vertex -4.5 29.1344 -1.3435
    endloop
  endfacet
  facet normal 1 0 0
    outer loop
      vertex -4.5 19.0935 -11.3844
      vertex -4.5 71 -15
      vertex -4.5 54.5935 -11.3844
    endloop
  endfacet
  facet normal 1 0 0
    outer loop
      vertex -4.5 6.36558 1.3435
      vertex -4.5 16.4065 11.3844
      vertex -4.5 3.2 15
    endloop
  endfacet
  facet normal 1 0 0
    outer loop
      vertex -4.5 64.6344 -1.3435
      vertex -4.5 54.5935 -11.3844
      vertex -4.5 71 -15
    endloop
  endfacet
  facet normal 0.998795 -0.0490683 0
    outer loop
      vertex -4.47833 71.4411 -15
      vertex -4.47833 71.4411 15
      vertex -4.5 71 15
    endloop
  endfacet
  facet normal 0.998795 -0.0490683 0
    outer loop
      vertex -4.5 71 -15
      vertex -4.47833 71.4411 -15
      vertex -4.5 71 15
    endloop
  endfacet
  facet normal 0.989177 -0.146729 0
    outer loop
      vertex -4.41353 71.8779 -15
      vertex -4.41353 71.8779 15
      vertex -4.47833 71.4411 15
    endloop
  endfacet
  facet normal 0.989177 -0.146729 0
    outer loop
      vertex -4.47833 71.4411 -15
      vertex -4.41353 71.8779 -15
      vertex -4.47833 71.4411 15
    endloop
  endfacet
  facet normal 0.970031 -0.242979 0
    outer loop
      vertex -4.30623 72.3063 -15
      vertex -4.30623 72.3063 15
      vertex -4.41353 71.8779 15
    endloop
  endfacet
  facet normal 0.970031 -0.242979 0
    outer loop
      vertex -4.41353 71.8779 -15
      vertex -4.30623 72.3063 -15
      vertex -4.41353 71.8779 15
    endloop
  endfacet
  facet normal 0.941544 -0.336891 0
    outer loop
      vertex -4.15746 72.7221 -15
      vertex -4.15746 72.7221 15
      vertex -4.30623 72.3063 15
    endloop
  endfacet
  facet normal 0.941544 -0.336891 0
    outer loop
      vertex -4.30623 72.3063 -15
      vertex -4.15746 72.7221 -15
      vertex -4.30623 72.3063 15
    endloop
  endfacet
  facet normal 0.90399 -0.427555 0
    outer loop
      vertex -3.96865 73.1213 -15
      vertex -3.96865 73.1213 15
      vertex -4.15746 72.7221 15
    endloop
  endfacet
  facet normal 0.90399 -0.427555 0
    outer loop
      vertex -4.15746 72.7221 -15
      vertex -3.96865 73.1213 -15
      vertex -4.15746 72.7221 15
    endloop
  endfacet
  facet normal 0.857728 -0.514103 0
    outer loop
      vertex -3.74161 73.5001 -15
      vertex -3.74161 73.5001 15
      vertex -3.96865 73.1213 15
    endloop
  endfacet
  facet normal 0.857728 -0.514103 0
    outer loop
      vertex -3.96865 73.1213 -15
      vertex -3.74161 73.5001 -15
      vertex -3.96865 73.1213 15
    endloop
  endfacet
  facet normal 0.803208 -0.595699 0
    outer loop
      vertex -3.47855 73.8548 -15
      vertex -3.47855 73.8548 15
      vertex -3.74161 73.5001 15
    endloop
  endfacet
  facet normal 0.803208 -0.595699 0
    outer loop
      vertex -3.74161 73.5001 -15
      vertex -3.47855 73.8548 -15
      vertex -3.74161 73.5001 15
    endloop
  endfacet
  facet normal 0.740952 -0.671558 0
    outer loop
      vertex -3.18198 74.182 -15
      vertex -3.18198 74.182 15
      vertex -3.47855 73.8548 15
    endloop
  endfacet
  facet normal 0.740952 -0.671558 0
    outer loop
      vertex -3.47855 73.8548 -15
      vertex -3.18198 74.182 -15
      vertex -3.47855 73.8548 15
    endloop
  endfacet
  facet normal 0.671558 -0.740952 0
    outer loop
      vertex -2.85477 74.4785 -15
      vertex -2.85477 74.4785 15
      vertex -3.18198 74.182 15
    endloop
  endfacet
  facet normal 0.671558 -0.740952 0
    outer loop
      vertex -3.18198 74.182 -15
      vertex -2.85477 74.4785 -15
      vertex -3.18198 74.182 15
    endloop
  endfacet
  facet normal 0.595699 -0.803208 0
    outer loop
      vertex -2.50007 74.7416 -15
      vertex -2.50007 74.7416 15
      vertex -2.85477 74.4785 15
    endloop
  endfacet
  facet normal 0.595699 -0.803208 0
    outer loop
      vertex -2.85477 74.4785 -15
      vertex -2.50007 74.7416 -15
      vertex -2.85477 74.4785 15
    endloop
  endfacet
  facet normal 0.514103 -0.857728 0
    outer loop
      vertex -2.12128 74.9686 -15
      vertex -2.12128 74.9686 15
      vertex -2.50007 74.7416 15
    endloop
  endfacet
  facet normal 0.514103 -0.857728 0
    outer loop
      vertex -2.50007 74.7416 -15
      vertex -2.12128 74.9686 -15
      vertex -2.50007 74.7416 15
    endloop
  endfacet
  facet normal 0.427555 -0.90399 0
    outer loop
      vertex -1.72208 75.1575 -15
      vertex -1.72208 75.1575 15
      vertex -2.12128 74.9686 15
    endloop
  endfacet
  facet normal 0.427555 -0.90399 0
    outer loop
      vertex -2.12128 74.9686 -15
      vertex -1.72208 75.1575 -15
      vertex -2.12128 74.9686 15
    endloop
  endfacet
  facet normal 0.336891 -0.941544 0
    outer loop
      vertex -1.30628 75.3062 -15
      vertex -1.30628 75.3062 15
      vertex -1.72208 75.1575 15
    endloop
  endfacet
  facet normal 0.336891 -0.941544 0
    outer loop
      vertex -1.72208 75.1575 -15
      vertex -1.30628 75.3062 -15
      vertex -1.72208 75.1575 15
    endloop
  endfacet
  facet normal 0.242979 -0.970031 0
    outer loop
      vertex -0.877906 75.4135 -15
      vertex -0.877906 75.4135 15
      vertex -1.30628 75.3062 15
    endloop
  endfacet
  facet normal 0.242979 -0.970031 0
    outer loop
      vertex -1.30628 75.3062 -15
      vertex -0.877906 75.4135 -15
      vertex -1.30628 75.3062 15
    endloop
  endfacet
  facet normal 0.146729 -0.989177 0
    outer loop
      vertex -0.441077 75.4783 -15
      vertex -0.441077 75.4783 15
      vertex -0.877906 75.4135 15
    endloop
  endfacet
  facet normal 0.146729 -0.989177 0
    outer loop
      vertex -0.877906 75.4135 -15
      vertex -0.441077 75.4783 -15
      vertex -0.877906 75.4135 15
    endloop
  endfacet
  facet normal 0.0490683 -0.998795 0
    outer loop
      vertex 0 75.5 -15
      vertex 0 75.5 15
      vertex -0.441077 75.4783 15
    endloop
  endfacet
  facet normal 0.0490683 -0.998795 0
    outer loop
      vertex -0.441077 75.4783 -15
      vertex 0 75.5 -15
      vertex -0.441077 75.4783 15
    endloop
  endfacet
  facet normal -0.0490683 -0.998795 0
    outer loop
      vertex 0.441077 75.4783 -15
      vertex 0.441077 75.4783 15
      vertex 0 75.5 15
    endloop
  endfacet
  facet normal -0.0490683 -0.998795 0
    outer loop
      vertex 0 75.5 -15
      vertex 0.441077 75.4783 -15
      vertex 0 75.5 15
    endloop
  endfacet
  facet normal -0.146729 -0.989177 0
    outer loop
      vertex 0.877906 75.4135 -15
      vertex 0.877906 75.4135 15
      vertex 0.441077 75.4783 15
    endloop
  endfacet
  facet normal -0.146729 -0.989177 0
    outer loop
      vertex 0.441077 75.4783 -15
      vertex 0.877906 75.4135 -15
      vertex 0.441077 75.4783 15
    endloop
  endfacet
  facet normal -0.242979 -0.970031 0
    outer loop
      vertex 1.30628 75.3062 -15
      vertex 1.30628 75.3062 15
      vertex 0.877906 75.4135 15
    endloop
  endfacet
  facet normal -0.242979 -0.970031 0
    outer loop
      vertex 0.877906 75.4135 -15
      vertex 1.30628 75.3062 -15
      vertex 0.877906 75.4135 15
    endloop
  endfacet
  facet normal -0.336891 -0.941544 0
    outer loop
      vertex 1.72208 75.1575 -15
      vertex 1.72208 75.1575 15
      vertex 1.30628 75.3062 15
    endloop
  endfacet
  facet normal -0.336891 -0.941544 0
    outer loop
      vertex 1.30628 75.3062 -15
      vertex 1.72208 75.1575 -15
      vertex 1.30628 75.3062 15
    endloop
  endfacet
  facet normal -0.427555 -0.90399 0
    outer loop
      vertex 2.12128 74.9686 -15
      vertex 2.12128 74.9686 15
      vertex 1.72208 75.1575 15
    endloop
  endfacet
  facet normal -0.427555 -0.90399 0
    outer loop
      vertex 1.72208 75.1575 -15
      vertex 2.12128 74.9686 -15
      vertex 1.72208 75.1575 15
    endloop
  endfacet
  facet normal -0.514103 -0.857728 0
    outer loop
      vertex 2.50007 74.7416 -15
      vertex 2.50007 74.7416 15
      vertex 2.12128 74.9686 15
    endloop
  endfacet
  facet normal -0.514103 -0.857728 0
    outer loop
      vertex 2.12128 74.9686 -15
      vertex 2.50007 74.7416 -15
      vertex 2.12128 74.9686 15
    endloop
  endfacet
  facet normal -0.595699 -0.803208 0
    outer loop
      vertex 2.85477 74.4785 -15
      vertex 2.85477 74.4785 15
      vertex 2.50007 74.7416 15
    endloop
  endfacet
  facet normal -0.595699 -0.803208 0
    outer loop
      vertex 2.50007 74.7416 -15
      vertex 2.85477 74.4785 -15
      vertex 2.50007 74.7416 15
    endloop
  endfacet
  facet normal -0.671558 -0.740952 0
    outer loop
      vertex 3.18198 74.182 -15
      vertex 3.18198 74.182 15
      vertex 2.85477 74.4785 15
    endloop
  endfacet
  facet normal -0.671558 -0.740952 0
    outer loop
      vertex 2.85477 74.4785 -15
      vertex 3.18198 74.182 -15
      vertex 2.85477 74.4785 15
    endloop
  endfacet
  facet normal -0.740952 -0.671558 0
    outer loop
      vertex 3.47855 73.8548 15
      vertex 3.18198 74.182 15
      vertex 3.47855 73.8548 -15
    endloop
  endfacet
  facet normal -0.740952 -0.671558 0
    outer loop
      vertex 3.47855 73.8548 -15
      vertex 3.18198 74.182 15
      vertex 3.18198 74.182 -15
    endloop
  endfacet
  facet normal -0.803208 -0.595699 0
    outer loop
      vertex 3.74161 73.5001 15
      vertex 3.47855 73.8548 15
      vertex 3.74161 73.5001 -15
    endloop
  endfacet
  facet normal -0.803208 -0.595699 0
    outer loop
      vertex 3.74161 73.5001 -15
      vertex 3.47855 73.8548 15
      vertex 3.47855 73.8548 -15
    endloop
  endfacet
  facet normal -0.857728 -0.514103 0
    outer loop
      vertex 3.96865 73.1213 15
      vertex 3.74161 73.5001 15
      vertex 3.96865 73.1213 -15
    endloop
  endfacet
  facet normal -0.857728 -0.514103 0
    outer loop
      vertex 3.96865 73.1213 -15
      vertex 3.74161 73.5001 15
      vertex 3.74161 73.5001 -15
    endloop
  endfacet
  facet normal -0.90399 -0.427555 0
    outer loop
      vertex 4.15746 72.7221 15
      vertex 3.96865 73.1213 15
      vertex 4.15746 72.7221 -15
    endloop
  endfacet
  facet normal -0.90399 -0.427555 0
    outer loop
      vertex 4.15746 72.7221 -15
      vertex 3.96865 73.1213 15
      vertex 3.96865 73.1213 -15
    endloop
  endfacet
  facet normal -0.941544 -0.336891 0
    outer loop
      vertex 4.30623 72.3063 15
      vertex 4.15746 72.7221 15
      vertex 4.30623 72.3063 -15
    endloop
  endfacet
  facet normal -0.941544 -0.336891 0
    outer loop
      vertex 4.30623 72.3063 -15
      vertex 4.15746 72.7221 15
      vertex 4.15746 72.7221 -15
    endloop
  endfacet
  facet normal -0.970031 -0.242979 0
    outer loop
      vertex 4.41353 71.8779 15
      vertex 4.30623 72.3063 15
      vertex 4.41353 71.8779 -15
    endloop
  endfacet
  facet normal -0.970031 -0.242979 0
    outer loop
      vertex 4.41353 71.8779 -15
      vertex 4.30623 72.3063 15
      vertex 4.30623 72.3063 -15
    endloop
  endfacet
  facet normal -0.989177 -0.146729 0
    outer loop
      vertex 4.47833 71.4411 15
      vertex 4.41353 71.8779 15
      vertex 4.47833 71.4411 -15
    endloop
  endfacet
  facet normal -0.989177 -0.146729 0
    outer loop
      vertex 4.47833 71.4411 -15
      vertex 4.41353 71.8779 15
      vertex 4.41353 71.8779 -15
    endloop
  endfacet
  facet normal -0.998795 -0.0490683 0
    outer loop
      vertex 4.5 71 15
      vertex 4.47833 71.4411 15
      vertex 4.5 71 -15
    endloop
  endfacet
  facet normal -0.998795 -0.0490683 0
    outer loop
      vertex 4.5 71 -15
      vertex 4.47833 71.4411 15
      vertex 4.47833 71.4411 -15
    endloop
  endfacet
  facet normal -1 0 0
    outer loop
      vertex 4.5 19.0935 -11.3844
      vertex 4.5 71 -15
      vertex 4.5 3.2 -15
    endloop
  endfacet
  facet normal -1 0 0
    outer loop
      vertex 4.5 54.5935 -11.3844
      vertex 4.5 29.1344 -1.3435
      vertex 4.5 16.4065 11.3844
    endloop
  endfacet
  facet normal -1 0 0
    outer loop
      vertex 4.5 3.2 15
      vertex 4.5 6.36558 1.3435
      vertex 4.5 3.2 -15
    endloop
  endfacet
  facet normal -1 0 0
    outer loop
      vertex 4.5 54.5935 -11.3844
      vertex 4.5 71 -15
      vertex 4.5 19.0935 -11.3844
    endloop
  endfacet
  facet normal -1 0 0
    outer loop
      vertex 4.5 6.36558 1.3435
      vertex 4.5 19.0935 -11.3844
      vertex 4.5 3.2 -15
    endloop
  endfacet
  facet normal -1 0 0
    outer loop
      vertex 4.5 29.1344 -1.3435
      vertex 4.5 54.5935 -11.3844
      vertex 4.5 19.0935 -11.3844
    endloop
  endfacet
  facet normal -1 0 0
    outer loop
      vertex 4.5 64.6344 -1.3435
      vertex 4.5 71 -15
      vertex 4.5 54.5935 -11.3844
    endloop
  endfacet
  facet normal -1 0 0
    outer loop
      vertex 4.5 71 15
      vertex 4.5 16.4065 11.3844
      vertex 4.5 3.2 15
    endloop
  endfacet
  facet normal -1 0 0
    outer loop
      vertex 4.5 51.9065 11.3844
      vertex 4.5 71 15
      vertex 4.5 64.6344 -1.3435
    endloop
  endfacet
  facet normal -1 0 0
    outer loop
      vertex 4.5 51.9065 11.3844
      vertex 4.5 41.8656 1.3435
      vertex 4.5 16.4065 11.3844
    endloop
  endfacet
  facet normal -1 0 0
    outer loop
      vertex 4.5 54.5935 -11.3844
      vertex 4.5 16.4065 11.3844
      vertex 4.5 41.8656 1.3435
    endloop
  endfacet
  facet normal -1 0 0
    outer loop
      vertex 4.5 71 15
      vertex 4.5 71 -15
      vertex 4.5 64.6344 -1.3435
    endloop
  endfacet
  facet normal -1 0 0
    outer loop
      vertex 4.5 71 15
      vertex 4.5 51.9065 11.3844
      vertex 4.5 16.4065 11.3844
    endloop
  endfacet
  facet normal -1 0 0
    outer loop
      vertex 4.5 6.36558 1.3435
      vertex 4.5 3.2 15
      vertex 4.5 16.4065 11.3844
    endloop
  endfacet
  facet normal 0 1 0
    outer loop
      vertex -0.3 3.2 -15
      vertex -0.3 3.2 15
      vertex 4.5 3.2 -15
    endloop
  endfacet
  facet normal 0 1 0
    outer loop
      vertex 4.5 3.2 -15
      vertex -0.3 3.2 15
      vertex 4.5 3.2 15
    endloop
  endfacet
  facet normal -1 0 0
    outer loop
      vertex -0.3 3.2 15
      vertex -0.3 0 4.06551
      vertex -0.3 0 15
    endloop
  endfacet
  facet normal -1 0 0
    outer loop
      vertex -0.3 -10 4.06551
      vertex -0.3 0 4.06551
      vertex -0.3 -17.6944 3.25241
    endloop
  endfacet
  facet normal -1 0 0
    outer loop
      vertex -0.3 3.2 -15
      vertex -0.3 0 4.06551
      vertex -0.3 3.2 15
    endloop
  endfacet
  facet normal -1 0 0
    outer loop
      vertex -0.3 0 0
      vertex -0.3 0 4.06551
      vertex -0.3 3.2 -15
    endloop
  endfacet
  facet normal -1 0 0
    outer loop
      vertex -0.3 -17.6944 3.25241
      vertex -0.3 0 4.06551
      vertex -0.3 0 0
    endloop
  endfacet
  facet normal -1 0 0
    outer loop
      vertex -0.3 -17.6944 -3.25241
      vertex -0.3 -17.6944 3.25241
      vertex -0.3 -10 -4.06551
    endloop
  endfacet
  facet normal -1 0 0
    outer loop
      vertex -0.3 -17.6944 3.25241
      vertex -0.3 0 0
      vertex -0.3 -9.02724e-16 -4.06551
    endloop
  endfacet
  facet normal -1 0 0
    outer loop
      vertex -0.3 0 0
      vertex -0.3 3.2 -15
      vertex -0.3 0 -15
    endloop
  endfacet
  facet normal -1 0 0
    outer loop
      vertex -0.3 -10 -4.06551
      vertex -0.3 -17.6944 3.25241
      vertex -0.3 -9.02724e-16 -4.06551
    endloop
  endfacet
  facet normal 0 -1 0
    outer loop
      vertex -0.3 0 0
      vertex -0.3 0 -15
      vertex 6.1 0 -15
    endloop
  endfacet
  facet normal 0 -1 0
    outer loop
      vertex -0.3 0 15
      vertex -0.3 0 4.06551
      vertex 6.1 0 15
    endloop
  endfacet
  facet normal 0 -1 0
    outer loop
      vertex -0.3 0 4.06551
      vertex 2.34722 0 4.06551
      vertex 6.1 0 15
    endloop
  endfacet
  facet normal 0 -1 0
    outer loop
      vertex 6.1 0 15
      vertex 4.69444 0 0
      vertex 6.1 0 -15
    endloop
  endfacet
  facet normal 0 -1 0
    outer loop
      vertex 6.1 0 15
      vertex 2.34722 0 4.06551
      vertex 4.69444 0 0
    endloop
  endfacet
  facet normal 0 -1 0
    outer loop
      vertex 4.69444 0 0
      vertex -0.3 0 0
      vertex 6.1 0 -15
    endloop
  endfacet
  facet normal 1 0 0
    outer loop
      vertex 6.1 19.0935 -11.3844
      vertex 6.1 0 -15
      vertex 6.1 71 -15
    endloop
  endfacet
  facet normal 1 0 0
    outer loop
      vertex 6.1 54.5935 -11.3844
      vertex 6.1 41.8656 1.3435
      vertex 6.1 16.4065 11.3844
    endloop
  endfacet
  facet normal 1 0 0
    outer loop
      vertex 6.1 0 15
      vertex 6.1 0 -15
      vertex 6.1 6.36558 1.3435
    endloop
  endfacet
  facet normal 1 0 0
    outer loop
      vertex 6.1 71 15
      vertex 6.1 0 15
      vertex 6.1 16.4065 11.3844
    endloop
  endfacet
  facet normal 1 0 0
    outer loop
      vertex 6.1 29.1344 -1.3435
      vertex 6.1 19.0935 -11.3844
      vertex 6.1 54.5935 -11.3844
    endloop
  endfacet
  facet normal 1 0 0
    outer loop
      vertex 6.1 54.5935 -11.3844
      vertex 6.1 19.0935 -11.3844
      vertex 6.1 71 -15
    endloop
  endfacet
  facet normal 1 0 0
    outer loop
      vertex 6.1 6.36558 1.3435
      vertex 6.1 0 -15
      vertex 6.1 19.0935 -11.3844
    endloop
  endfacet
  facet normal 1 0 0
    outer loop
      vertex 6.1 51.9065 11.3844
      vertex 6.1 16.4065 11.3844
      vertex 6.1 41.8656 1.3435
    endloop
  endfacet
  facet normal 1 0 0
    outer loop
      vertex 6.1 64.6344 -1.3435
      vertex 6.1 54.5935 -11.3844
      vertex 6.1 71 -15
    endloop
  endfacet
  facet normal 1 0 0
    outer loop
      vertex 6.1 71 15
      vertex 6.1 16.4065 11.3844
      vertex 6.1 51.9065 11.3844
    endloop
  endfacet
  facet normal 1 0 0
    outer loop
      vertex 6.1 71 15
      vertex 6.1 64.6344 -1.3435
      vertex 6.1 71 -15
    endloop
  endfacet
  facet normal 1 0 0
    outer loop
      vertex 6.1 54.5935 -11.3844
      vertex 6.1 16.4065 11.3844
      vertex 6.1 29.1344 -1.3435
    endloop
  endfacet
  facet normal 1 0 0
    outer loop
      vertex 6.1 51.9065 11.3844
      vertex 6.1 64.6344 -1.3435
      vertex 6.1 71 15
    endloop
  endfacet
  facet normal 1 0 0
    outer loop
      vertex 6.1 6.36558 1.3435
      vertex 6.1 16.4065 11.3844
      vertex 6.1 0 15
    endloop
  endfacet
  facet normal 0.998795 0.0490674 0
    outer loop
      vertex 6.1 71 -15
      vertex 6.07063 71.5979 -15
      vertex 6.07063 71.5979 15
    endloop
  endfacet
  facet normal 0.998795 0.0490674 0
    outer loop
      vertex 6.1 71 15
      vertex 6.1 71 -15
      vertex 6.07063 71.5979 15
    endloop
  endfacet
  facet normal 0.989176 0.146731 0
    outer loop
      vertex 6.07063 71.5979 -15
      vertex 5.98279 72.1901 -15
      vertex 5.98279 72.1901 15
    endloop
  endfacet
  facet normal 0.989176 0.146731 0
    outer loop
      vertex 6.07063 71.5979 15
      vertex 6.07063 71.5979 -15
      vertex 5.98279 72.1901 15
    endloop
  endfacet
  facet normal 0.970031 0.24298 0
    outer loop
      vertex 5.98279 72.1901 -15
      vertex 5.83734 72.7707 -15
      vertex 5.83734 72.7707 15
    endloop
  endfacet
  facet normal 0.970031 0.24298 0
    outer loop
      vertex 5.98279 72.1901 15
      vertex 5.98279 72.1901 -15
      vertex 5.83734 72.7707 15
    endloop
  endfacet
  facet normal 0.941544 0.33689 0
    outer loop
      vertex 5.83734 72.7707 -15
      vertex 5.63566 73.3344 -15
      vertex 5.63566 73.3344 15
    endloop
  endfacet
  facet normal 0.941544 0.33689 0
    outer loop
      vertex 5.83734 72.7707 15
      vertex 5.83734 72.7707 -15
      vertex 5.63566 73.3344 15
    endloop
  endfacet
  facet normal 0.90399 0.427555 0
    outer loop
      vertex 5.63566 73.3344 -15
      vertex 5.37972 73.8755 -15
      vertex 5.37972 73.8755 15
    endloop
  endfacet
  facet normal 0.90399 0.427555 0
    outer loop
      vertex 5.63566 73.3344 15
      vertex 5.63566 73.3344 -15
      vertex 5.37972 73.8755 15
    endloop
  endfacet
  facet normal 0.857729 0.514103 0
    outer loop
      vertex 5.37972 73.8755 -15
      vertex 5.07196 74.389 -15
      vertex 5.07196 74.389 15
    endloop
  endfacet
  facet normal 0.857729 0.514103 0
    outer loop
      vertex 5.37972 73.8755 15
      vertex 5.37972 73.8755 -15
      vertex 5.07196 74.389 15
    endloop
  endfacet
  facet normal 0.803208 0.595699 0
    outer loop
      vertex 5.07196 74.389 -15
      vertex 4.71536 74.8698 -15
      vertex 4.71536 74.8698 15
    endloop
  endfacet
  facet normal 0.803208 0.595699 0
    outer loop
      vertex 5.07196 74.389 15
      vertex 5.07196 74.389 -15
      vertex 4.71536 74.8698 15
    endloop
  endfacet
  facet normal 0.74095 0.67156 0
    outer loop
      vertex 4.71536 74.8698 -15
      vertex 4.31335 75.3134 -15
      vertex 4.31335 75.3134 15
    endloop
  endfacet
  facet normal 0.74095 0.67156 0
    outer loop
      vertex 4.71536 74.8698 15
      vertex 4.71536 74.8698 -15
      vertex 4.31335 75.3134 15
    endloop
  endfacet
  facet normal 0.67156 0.74095 0
    outer loop
      vertex 3.8698 75.7154 -15
      vertex 3.8698 75.7154 15
      vertex 4.31335 75.3134 -15
    endloop
  endfacet
  facet normal 0.67156 0.74095 0
    outer loop
      vertex 4.31335 75.3134 -15
      vertex 3.8698 75.7154 15
      vertex 4.31335 75.3134 15
    endloop
  endfacet
  facet normal 0.595699 0.803208 0
    outer loop
      vertex 3.38898 76.072 -15
      vertex 3.38898 76.072 15
      vertex 3.8698 75.7154 -15
    endloop
  endfacet
  facet normal 0.595699 0.803208 0
    outer loop
      vertex 3.8698 75.7154 -15
      vertex 3.38898 76.072 15
      vertex 3.8698 75.7154 15
    endloop
  endfacet
  facet normal 0.514103 0.857729 0
    outer loop
      vertex 2.87552 76.3797 -15
      vertex 2.87552 76.3797 15
      vertex 3.38898 76.072 -15
    endloop
  endfacet
  facet normal 0.514103 0.857729 0
    outer loop
      vertex 3.38898 76.072 -15
      vertex 2.87552 76.3797 15
      vertex 3.38898 76.072 15
    endloop
  endfacet
  facet normal 0.427555 0.90399 0
    outer loop
      vertex 2.33437 76.6357 -15
      vertex 2.33437 76.6357 15
      vertex 2.87552 76.3797 -15
    endloop
  endfacet
  facet normal 0.427555 0.90399 0
    outer loop
      vertex 2.87552 76.3797 -15
      vertex 2.33437 76.6357 15
      vertex 2.87552 76.3797 15
    endloop
  endfacet
  facet normal 0.33689 0.941544 0
    outer loop
      vertex 1.77074 76.8373 -15
      vertex 1.77074 76.8373 15
      vertex 2.33437 76.6357 -15
    endloop
  endfacet
  facet normal 0.33689 0.941544 0
    outer loop
      vertex 2.33437 76.6357 -15
      vertex 1.77074 76.8373 15
      vertex 2.33437 76.6357 15
    endloop
  endfacet
  facet normal 0.24298 0.970031 0
    outer loop
      vertex 1.19005 76.9828 -15
      vertex 1.19005 76.9828 15
      vertex 1.77074 76.8373 -15
    endloop
  endfacet
  facet normal 0.24298 0.970031 0
    outer loop
      vertex 1.77074 76.8373 -15
      vertex 1.19005 76.9828 15
      vertex 1.77074 76.8373 15
    endloop
  endfacet
  facet normal 0.146731 0.989176 0
    outer loop
      vertex 0.597905 77.0706 -15
      vertex 0.597905 77.0706 15
      vertex 1.19005 76.9828 -15
    endloop
  endfacet
  facet normal 0.146731 0.989176 0
    outer loop
      vertex 1.19005 76.9828 -15
      vertex 0.597905 77.0706 15
      vertex 1.19005 76.9828 15
    endloop
  endfacet
  facet normal 0.0490674 0.998795 0
    outer loop
      vertex 0 77.1 -15
      vertex 0 77.1 15
      vertex 0.597905 77.0706 -15
    endloop
  endfacet
  facet normal 0.0490674 0.998795 0
    outer loop
      vertex 0.597905 77.0706 -15
      vertex 0 77.1 15
      vertex 0.597905 77.0706 15
    endloop
  endfacet
  facet normal -0.0490674 0.998795 0
    outer loop
      vertex -0.597905 77.0706 -15
      vertex -0.597905 77.0706 15
      vertex 0 77.1 -15
    endloop
  endfacet
  facet normal -0.0490674 0.998795 0
    outer loop
      vertex 0 77.1 -15
      vertex -0.597905 77.0706 15
      vertex 0 77.1 15
    endloop
  endfacet
  facet normal -0.146731 0.989176 0
    outer loop
      vertex -1.19005 76.9828 -15
      vertex -1.19005 76.9828 15
      vertex -0.597905 77.0706 -15
    endloop
  endfacet
  facet normal -0.146731 0.989176 0
    outer loop
      vertex -0.597905 77.0706 -15
      vertex -1.19005 76.9828 15
      vertex -0.597905 77.0706 15
    endloop
  endfacet
  facet normal -0.24298 0.970031 0
    outer loop
      vertex -1.77074 76.8373 -15
      vertex -1.77074 76.8373 15
      vertex -1.19005 76.9828 -15
    endloop
  endfacet
  facet normal -0.24298 0.970031 0
    outer loop
      vertex -1.19005 76.9828 -15
      vertex -1.77074 76.8373 15
      vertex -1.19005 76.9828 15
    endloop
  endfacet
  facet normal -0.33689 0.941544 0
    outer loop
      vertex -2.33437 76.6357 -15
      vertex -2.33437 76.6357 15
      vertex -1.77074 76.8373 -15
    endloop
  endfacet
  facet normal -0.33689 0.941544 0
    outer loop
      vertex -1.77074 76.8373 -15
      vertex -2.33437 76.6357 15
      vertex -1.77074 76.8373 15
    endloop
  endfacet
  facet normal -0.427555 0.90399 0
    outer loop
      vertex -2.87552 76.3797 -15
      vertex -2.87552 76.3797 15
      vertex -2.33437 76.6357 -15
    endloop
  endfacet
  facet normal -0.427555 0.90399 0
    outer loop
      vertex -2.33437 76.6357 -15
      vertex -2.87552 76.3797 15
      vertex -2.33437 76.6357 15
    endloop
  endfacet
  facet normal -0.514103 0.857729 0
    outer loop
      vertex -3.38898 76.072 -15
      vertex -3.38898 76.072 15
      vertex -2.87552 76.3797 -15
    endloop
  endfacet
  facet normal -0.514103 0.857729 0
    outer loop
      vertex -2.87552 76.3797 -15
      vertex -3.38898 76.072 15
      vertex -2.87552 76.3797 15
    endloop
  endfacet
  facet normal -0.595699 0.803208 0
    outer loop
      vertex -3.8698 75.7154 -15
      vertex -3.8698 75.7154 15
      vertex -3.38898 76.072 -15
    endloop
  endfacet
  facet normal -0.595699 0.803208 0
    outer loop
      vertex -3.38898 76.072 -15
      vertex -3.8698 75.7154 15
      vertex -3.38898 76.072 15
    endloop
  endfacet
  facet normal -0.67156 0.74095 0
    outer loop
      vertex -4.31335 75.3134 -15
      vertex -4.31335 75.3134 15
      vertex -3.8698 75.7154 -15
    endloop
  endfacet
  facet normal -0.67156 0.74095 0
    outer loop
      vertex -3.8698 75.7154 -15
      vertex -4.31335 75.3134 15
      vertex -3.8698 75.7154 15
    endloop
  endfacet
  facet normal -0.74095 0.67156 0
    outer loop
      vertex -4.71536 74.8698 -15
      vertex -4.71536 74.8698 15
      vertex -4.31335 75.3134 -15
    endloop
  endfacet
  facet normal -0.74095 0.67156 0
    outer loop
      vertex -4.31335 75.3134 -15
      vertex -4.71536 74.8698 15
      vertex -4.31335 75.3134 15
    endloop
  endfacet
  facet normal -0.803208 0.595699 0
    outer loop
      vertex -5.07196 74.389 -15
      vertex -5.07196 74.389 15
      vertex -4.71536 74.8698 -15
    endloop
  endfacet
  facet normal -0.803208 0.595699 0
    outer loop
      vertex -4.71536 74.8698 -15
      vertex -5.07196 74.389 15
      vertex -4.71536 74.8698 15
    endloop
  endfacet
  facet normal -0.857729 0.514103 0
    outer loop
      vertex -5.37972 73.8755 -15
      vertex -5.37972 73.8755 15
      vertex -5.07196 74.389 -15
    endloop
  endfacet
  facet normal -0.857729 0.514103 0
    outer loop
      vertex -5.07196 74.389 -15
      vertex -5.37972 73.8755 15
      vertex -5.07196 74.389 15
    endloop
  endfacet
  facet normal -0.90399 0.427555 0
    outer loop
      vertex -5.63566 73.3344 -15
      vertex -5.63566 73.3344 15
      vertex -5.37972 73.8755 -15
    endloop
  endfacet
  facet normal -0.90399 0.427555 0
    outer loop
      vertex -5.37972 73.8755 -15
      vertex -5.63566 73.3344 15
      vertex -5.37972 73.8755 15
    endloop
  endfacet
  facet normal -0.941544 0.33689 0
    outer loop
      vertex -5.83734 72.7707 -15
      vertex -5.83734 72.7707 15
      vertex -5.63566 73.3344 -15
    endloop
  endfacet
  facet normal -0.941544 0.33689 0
    outer loop
      vertex -5.63566 73.3344 -15
      vertex -5.83734 72.7707 15
      vertex -5.63566 73.3344 15
    endloop
  endfacet
  facet normal -0.970031 0.24298 0
    outer loop
      vertex -5.98279 72.1901 -15
      vertex -5.98279 72.1901 15
      vertex -5.83734 72.7707 -15
    endloop
  endfacet
  facet normal -0.970031 0.24298 0
    outer loop
      vertex -5.83734 72.7707 -15
      vertex -5.98279 72.1901 15
      vertex -5.83734 72.7707 15
    endloop
  endfacet
  facet normal -0.989176 0.146731 0
    outer loop
      vertex -6.07063 71.5979 -15
      vertex -6.07063 71.5979 15
      vertex -5.98279 72.1901 -15
    endloop
  endfacet
  facet normal -0.989176 0.146731 0
    outer loop
      vertex -5.98279 72.1901 -15
      vertex -6.07063 71.5979 15
      vertex -5.98279 72.1901 15
    endloop
  endfacet
  facet normal -0.998795 0.0490674 0
    outer loop
      vertex -6.1 71 -15
      vertex -6.1 71 15
      vertex -6.07063 71.5979 -15
    endloop
  endfacet
  facet normal -0.998795 0.0490674 0
    outer loop
      vertex -6.07063 71.5979 -15
      vertex -6.1 71 15
      vertex -6.07063 71.5979 15
    endloop
  endfacet
  facet normal 0 -2.22045e-16 -1
    outer loop
      vertex -2.34722 -10 -4.06551
      vertex -2.34722 -9.02724e-16 -4.06551
      vertex -0.5 -10 -4.06551
    endloop
  endfacet
  facet normal 0 -2.22045e-16 -1
    outer loop
      vertex -0.5 -10 -4.06551
      vertex -2.34722 -9.02724e-16 -4.06551
      vertex -0.5 -9.02724e-16 -4.06551
    endloop
  endfacet
  facet normal 0 -0.105089 -0.994463
    outer loop
      vertex -2.34722 -10 -4.06551
      vertex -0.5 -10 -4.06551
      vertex -1.87778 -17.6944 -3.25241
    endloop
  endfacet
  facet normal 0 -0.105089 -0.994463
    outer loop
      vertex -1.87778 -17.6944 -3.25241
      vertex -0.5 -10 -4.06551
      vertex -0.5 -17.6944 -3.25241
    endloop
  endfacet
  facet normal 0 -1 2.22045e-16
    outer loop
      vertex -1.87778 -17.6944 3.25241
      vertex -3.75556 -17.6944 3.92896e-15
      vertex -1.87778 -17.6944 -3.25241
    endloop
  endfacet
  facet normal 0 -1 2.22045e-16
    outer loop
      vertex -0.5 -17.6944 3.25241
      vertex -1.87778 -17.6944 3.25241
      vertex -0.5 -17.6944 -3.25241
    endloop
  endfacet
  facet normal 0 -1 2.22045e-16
    outer loop
      vertex -0.5 -17.6944 -3.25241
      vertex -1.87778 -17.6944 3.25241
      vertex -1.87778 -17.6944 -3.25241
    endloop
  endfacet
  facet normal 0 -0.105089 0.994463
    outer loop
      vertex -0.5 -10 4.06551
      vertex -2.34722 -10 4.06551
      vertex -1.87778 -17.6944 3.25241
    endloop
  endfacet
  facet normal 0 -0.105089 0.994463
    outer loop
      vertex -0.5 -17.6944 3.25241
      vertex -0.5 -10 4.06551
      vertex -1.87778 -17.6944 3.25241
    endloop
  endfacet
  facet normal -0.86123 -0.105089 0.497231
    outer loop
      vertex -2.34722 -10 4.06551
      vertex -4.69444 -10 2.22045e-15
      vertex -1.87778 -17.6944 3.25241
    endloop
  endfacet
  facet normal -0.86123 -0.105089 0.497231
    outer loop
      vertex -1.87778 -17.6944 3.25241
      vertex -4.69444 -10 2.22045e-15
      vertex -3.75556 -17.6944 3.92896e-15
    endloop
  endfacet
  facet normal -0.86123 -0.105089 -0.497231
    outer loop
      vertex -3.75556 -17.6944 3.92896e-15
      vertex -4.69444 -10 2.22045e-15
      vertex -2.34722 -10 -4.06551
    endloop
  endfacet
  facet normal -0.86123 -0.105089 -0.497231
    outer loop
      vertex -1.87778 -17.6944 -3.25241
      vertex -3.75556 -17.6944 3.92896e-15
      vertex -2.34722 -10 -4.06551
    endloop
  endfacet
  facet normal 0 0.707107 -0.707107
    outer loop
      vertex 6.1 16.4065 11.3844
      vertex 6.1 6.36558 1.3435
      vertex 4.5 16.4065 11.3844
    endloop
  endfacet
  facet normal 0 0.707107 -0.707107
    outer loop
      vertex 4.5 16.4065 11.3844
      vertex 6.1 6.36558 1.3435
      vertex 4.5 6.36558 1.3435
    endloop
  endfacet
  facet normal 0 0.707107 0.707107
    outer loop
      vertex 6.1 6.36558 1.3435
      vertex 6.1 19.0935 -11.3844
      vertex 4.5 19.0935 -11.3844
    endloop
  endfacet
  facet normal 0 0.707107 0.707107
    outer loop
      vertex 4.5 6.36558 1.3435
      vertex 6.1 6.36558 1.3435
      vertex 4.5 19.0935 -11.3844
    endloop
  endfacet
  facet normal 0 -0.707107 -0.707107
    outer loop
      vertex 6.1 29.1344 -1.3435
      vertex 6.1 16.4065 11.3844
      vertex 4.5 29.1344 -1.3435
    endloop
  endfacet
  facet normal 0 -0.707107 -0.707107
    outer loop
      vertex 4.5 29.1344 -1.3435
      vertex 6.1 16.4065 11.3844
      vertex 4.5 16.4065 11.3844
    endloop
  endfacet
  facet normal 0 -0.707107 0.707107
    outer loop
      vertex 6.1 19.0935 -11.3844
      vertex 6.1 29.1344 -1.3435
      vertex 4.5 29.1344 -1.3435
    endloop
  endfacet
  facet normal 0 -0.707107 0.707107
    outer loop
      vertex 4.5 19.0935 -11.3844
      vertex 6.1 19.0935 -11.3844
      vertex 4.5 29.1344 -1.3435
    endloop
  endfacet
  facet normal 0 0.707107 -0.707107
    outer loop
      vertex 6.1 51.9065 11.3844
      vertex 6.1 41.8656 1.3435
      vertex 4.5 51.9065 11.3844
    endloop
  endfacet
  facet normal 0 0.707107 -0.707107
    outer loop
      vertex 4.5 51.9065 11.3844
      vertex 6.1 41.8656 1.3435
      vertex 4.5 41.8656 1.3435
    endloop
  endfacet
  facet normal 0 0.707107 0.707107
    outer loop
      vertex 6.1 41.8656 1.3435
      vertex 6.1 54.5935 -11.3844
      vertex 4.5 54.5935 -11.3844
    endloop
  endfacet
  facet normal 0 0.707107 0.707107
    outer loop
      vertex 4.5 41.8656 1.3435
      vertex 6.1 41.8656 1.3435
      vertex 4.5 54.5935 -11.3844
    endloop
  endfacet
  facet normal 0 -0.707107 -0.707107
    outer loop
      vertex 6.1 64.6344 -1.3435
      vertex 6.1 51.9065 11.3844
      vertex 4.5 64.6344 -1.3435
    endloop
  endfacet
  facet normal 0 -0.707107 -0.707107
    outer loop
      vertex 4.5 64.6344 -1.3435
      vertex 6.1 51.9065 11.3844
      vertex 4.5 51.9065 11.3844
    endloop
  endfacet
  facet normal 0 -0.707107 0.707107
    outer loop
      vertex 6.1 54.5935 -11.3844
      vertex 6.1 64.6344 -1.3435
      vertex 4.5 64.6344 -1.3435
    endloop
  endfacet
  facet normal 0 -0.707107 0.707107
    outer loop
      vertex 4.5 54.5935 -11.3844
      vertex 6.1 54.5935 -11.3844
      vertex 4.5 64.6344 -1.3435
    endloop
  endfacet
  facet normal 0 -1 2.22045e-16
    outer loop
      vertex -0.3 -17.6944 3.25241
      vertex -0.3 -17.6944 -3.25241
      vertex 1.87778 -17.6944 -3.25241
    endloop
  endfacet
  facet normal 0 -1 2.22045e-16
    outer loop
      vertex 1.87778 -17.6944 3.25241
      vertex -0.3 -17.6944 3.25241
      vertex 3.75556 -17.6944 3.92896e-15
    endloop
  endfacet
  facet normal 0 -1 2.22045e-16
    outer loop
      vertex 3.75556 -17.6944 3.92896e-15
      vertex -0.3 -17.6944 3.25241
      vertex 1.87778 -17.6944 -3.25241
    endloop
  endfacet
  facet normal 0 -0.105089 0.994463
    outer loop
      vertex -0.3 -10 4.06551
      vertex -0.3 -17.6944 3.25241
      vertex 1.87778 -17.6944 3.25241
    endloop
  endfacet
  facet normal 0 -0.105089 0.994463
    outer loop
      vertex 2.34722 -10 4.06551
      vertex -0.3 -10 4.06551
      vertex 1.87778 -17.6944 3.25241
    endloop
  endfacet
  facet normal 0 -0.105089 -0.994463
    outer loop
      vertex -0.3 -17.6944 -3.25241
      vertex -0.3 -10 -4.06551
      vertex 1.87778 -17.6944 -3.25241
    endloop
  endfacet
  facet normal 0 -0.105089 -0.994463
    outer loop
      vertex 1.87778 -17.6944 -3.25241
      vertex -0.3 -10 -4.06551
      vertex 2.34722 -10 -4.06551
    endloop
  endfacet
  facet normal 0 -2.22045e-16 -1
    outer loop
      vertex -0.3 -10 -4.06551
      vertex -0.3 -9.02724e-16 -4.06551
      vertex 2.34722 -10 -4.06551
    endloop
  endfacet
  facet normal 0 -2.22045e-16 -1
    outer loop
      vertex 2.34722 -10 -4.06551
      vertex -0.3 -9.02724e-16 -4.06551
      vertex 2.34722 -9.02724e-16 -4.06551
    endloop
  endfacet
  facet normal 0 1 -2.22045e-16
    outer loop
      vertex -0.3 -9.02724e-16 -4.06551
      vertex -0.3 0 0
      vertex 2.34722 -9.02724e-16 -4.06551
    endloop
  endfacet
  facet normal 0 1 -2.22045e-16
    outer loop
      vertex 2.34722 -9.02724e-16 -4.06551
      vertex -0.3 0 0
      vertex 4.69444 0 0
    endloop
  endfacet
  facet normal 0 2.22045e-16 1
    outer loop
      vertex -0.3 0 4.06551
      vertex -0.3 -10 4.06551
      vertex 2.34722 -10 4.06551
    endloop
  endfacet
  facet normal 0 2.22045e-16 1
    outer loop
      vertex 2.34722 0 4.06551
      vertex -0.3 0 4.06551
      vertex 2.34722 -10 4.06551
    endloop
  endfacet
  facet normal 0.866025 -1.11022e-16 -0.5
    outer loop
      vertex 4.69444 -10 2.22045e-15
      vertex 2.34722 -10 -4.06551
      vertex 2.34722 -9.02724e-16 -4.06551
    endloop
  endfacet
  facet normal 0.866025 -1.11022e-16 -0.5
    outer loop
      vertex 4.69444 0 0
      vertex 4.69444 -10 2.22045e-15
      vertex 2.34722 -9.02724e-16 -4.06551
    endloop
  endfacet
  facet normal 0.866025 1.11022e-16 0.5
    outer loop
      vertex 2.34722 0 4.06551
      vertex 2.34722 -10 4.06551
      vertex 4.69444 -10 2.22045e-15
    endloop
  endfacet
  facet normal 0.866025 1.11022e-16 0.5
    outer loop
      vertex 4.69444 0 0
      vertex 2.34722 0 4.06551
      vertex 4.69444 -10 2.22045e-15
    endloop
  endfacet
  facet normal 0.86123 -0.105089 0.497231
    outer loop
      vertex 2.34722 -10 4.06551
      vertex 1.87778 -17.6944 3.25241
      vertex 3.75556 -17.6944 3.92896e-15
    endloop
  endfacet
  facet normal 0.86123 -0.105089 0.497231
    outer loop
      vertex 4.69444 -10 2.22045e-15
      vertex 2.34722 -10 4.06551
      vertex 3.75556 -17.6944 3.92896e-15
    endloop
  endfacet
  facet normal 0.86123 -0.105089 -0.497231
    outer loop
      vertex 3.75556 -17.6944 3.92896e-15
      vertex 1.87778 -17.6944 -3.25241
      vertex 4.69444 -10 2.22045e-15
    endloop
  endfacet
  facet normal 0.86123 -0.105089 -0.497231
    outer loop
      vertex 4.69444 -10 2.22045e-15
      vertex 1.87778 -17.6944 -3.25241
      vertex 2.34722 -10 -4.06551
    endloop
  endfacet
  facet normal -1 0 0
    outer loop
      vertex 4.1 28.4 -15
      vertex 4.1 28.4 -2.07792
      vertex 4.1 42.6 -15
    endloop
  endfacet
  facet normal -1 0 0
    outer loop
      vertex 4.1 42.6 -15
      vertex 4.1 28.4 -2.07792
      vertex 4.1 29.1344 -1.3435
    endloop
  endfacet
  facet normal -1 0 0
    outer loop
      vertex 4.1 29.1344 -1.3435
      vertex 4.1 28.4 -0.609084
      vertex 4.1 28.4 15
    endloop
  endfacet
  facet normal -1 0 0
    outer loop
      vertex 4.1 29.1344 -1.3435
      vertex 4.1 28.4 15
      vertex 4.1 42.6 -15
    endloop
  endfacet
  facet normal -1 0 0
    outer loop
      vertex 4.1 42.6 2.07792
      vertex 4.1 28.4 15
      vertex 4.1 42.6 15
    endloop
  endfacet
  facet normal -1 0 0
    outer loop
      vertex 4.1 41.8656 1.3435
      vertex 4.1 28.4 15
      vertex 4.1 42.6 2.07792
    endloop
  endfacet
  facet normal -1 0 0
    outer loop
      vertex 4.1 42.6 -15
      vertex 4.1 28.4 15
      vertex 4.1 41.8656 1.3435
    endloop
  endfacet
  facet normal -1 0 0
    outer loop
      vertex 4.1 42.6 -15
      vertex 4.1 41.8656 1.3435
      vertex 4.1 42.6 0.609084
    endloop
  endfacet
  facet normal 0 -1 0
    outer loop
      vertex 4.1 28.4 -2.07792
      vertex 4.1 28.4 -15
      vertex 4.5 28.4 -15
    endloop
  endfacet
  facet normal 0 -1 0
    outer loop
      vertex 4.5 28.4 -2.07792
      vertex 4.1 28.4 -2.07792
      vertex 4.5 28.4 -15
    endloop
  endfacet
  facet normal 0 0 -1
    outer loop
      vertex 4.1 28.4 -15
      vertex 4.1 42.6 -15
      vertex 4.5 28.4 -15
    endloop
  endfacet
  facet normal 0 0 -1
    outer loop
      vertex 4.5 28.4 -15
      vertex 4.1 42.6 -15
      vertex 4.5 42.6 -15
    endloop
  endfacet
  facet normal 0 1 0
    outer loop
      vertex 4.1 42.6 -15
      vertex 4.1 42.6 0.609084
      vertex 4.5 42.6 -15
    endloop
  endfacet
  facet normal 0 1 0
    outer loop
      vertex 4.5 42.6 -15
      vertex 4.1 42.6 0.609084
      vertex 4.5 42.6 0.609084
    endloop
  endfacet
  facet normal 0 0.707107 0.707107
    outer loop
      vertex 4.5 41.8656 1.3435
      vertex 4.5 42.6 0.609084
      vertex 4.1 42.6 0.609084
    endloop
  endfacet
  facet normal 0 0.707107 0.707107
    outer loop
      vertex 4.1 41.8656 1.3435
      vertex 4.5 41.8656 1.3435
      vertex 4.1 42.6 0.609084
    endloop
  endfacet
  facet normal 0 0.707107 -0.707107
    outer loop
      vertex 4.5 42.6 2.07792
      vertex 4.5 41.8656 1.3435
      vertex 4.1 42.6 2.07792
    endloop
  endfacet
  facet normal 0 0.707107 -0.707107
    outer loop
      vertex 4.1 42.6 2.07792
      vertex 4.5 41.8656 1.3435
      vertex 4.1 41.8656 1.3435
    endloop
  endfacet
  facet normal 0 1 0
    outer loop
      vertex 4.1 42.6 2.07792
      vertex 4.1 42.6 15
      vertex 4.5 42.6 2.07792
    endloop
  endfacet
  facet normal 0 1 0
    outer loop
      vertex 4.5 42.6 2.07792
      vertex 4.1 42.6 15
      vertex 4.5 42.6 15
    endloop
  endfacet
  facet normal 0 0 1
    outer loop
      vertex 4.1 42.6 15
      vertex 4.1 28.4 15
      vertex 4.5 28.4 15
    endloop
  endfacet
  facet normal 0 0 1
    outer loop
      vertex 4.5 42.6 15
      vertex 4.1 42.6 15
      vertex 4.5 28.4 15
    endloop
  endfacet
  facet normal 0 -1 0
    outer loop
      vertex 4.1 28.4 15
      vertex 4.1 28.4 -0.609084
      vertex 4.5 28.4 -0.609084
    endloop
  endfacet
  facet normal 0 -1 0
    outer loop
      vertex 4.5 28.4 15
      vertex 4.1 28.4 15
      vertex 4.5 28.4 -0.609084
    endloop
  endfacet
  facet normal 0 -0.707107 -0.707107
    outer loop
      vertex 4.5 29.1344 -1.3435
      vertex 4.5 28.4 -0.609084
      vertex 4.1 29.1344 -1.3435
    endloop
  endfacet
  facet normal 0 -0.707107 -0.707107
    outer loop
      vertex 4.1 29.1344 -1.3435
      vertex 4.5 28.4 -0.609084
      vertex 4.1 28.4 -0.609084
    endloop
  endfacet
  facet normal 0 -0.707107 0.707107
    outer loop
      vertex 4.5 28.4 -2.07792
      vertex 4.5 29.1344 -1.3435
      vertex 4.1 29.1344 -1.3435
    endloop
  endfacet
  facet normal 0 -0.707107 0.707107
    outer loop
      vertex 4.1 28.4 -2.07792
      vertex 4.5 28.4 -2.07792
      vertex 4.1 29.1344 -1.3435
    endloop
  endfacet
  facet normal 1 0 0
    outer loop
      vertex 4.5 28.4 -2.07792
      vertex 4.5 28.4 -15
      vertex 4.5 42.6 -15
    endloop
  endfacet
  facet normal 1 0 0
    outer loop
      vertex 4.5 41.8656 1.3435
      vertex 4.5 28.4 -2.07792
      vertex 4.5 42.6 0.609084
    endloop
  endfacet
  facet normal 1 0 0
    outer loop
      vertex 4.5 42.6 0.609084
      vertex 4.5 28.4 -2.07792
      vertex 4.5 42.6 -15
    endloop
  endfacet
  facet normal 1 0 0
    outer loop
      vertex 4.5 42.6 2.07792
      vertex 4.5 28.4 -2.07792
      vertex 4.5 41.8656 1.3435
    endloop
  endfacet
  facet normal 1 0 0
    outer loop
      vertex 4.5 29.1344 -1.3435
      vertex 4.5 28.4 -2.07792
      vertex 4.5 42.6 2.07792
    endloop
  endfacet
  facet normal 1 0 0
    outer loop
      vertex 4.5 28.4 15
      vertex 4.5 28.4 -0.609084
      vertex 4.5 42.6 15
    endloop
  endfacet
  facet normal 1 0 0
    outer loop
      vertex 4.5 42.6 15
      vertex 4.5 29.1344 -1.3435
      vertex 4.5 42.6 2.07792
    endloop
  endfacet
  facet normal 1 0 0
    outer loop
      vertex 4.5 28.4 -0.609084
      vertex 4.5 29.1344 -1.3435
      vertex 4.5 42.6 15
    endloop
  endfacet
  facet normal -1 0 0
    outer loop
      vertex -4.5 29.1344 -1.3435
      vertex -4.5 28.4 -0.609084
      vertex -4.5 28.4 15
    endloop
  endfacet
  facet normal -1 0 0
    outer loop
      vertex -4.5 29.1344 -1.3435
      vertex -4.5 28.4 15
      vertex -4.5 42.6 15
    endloop
  endfacet
  facet normal -1 0 0
    outer loop
      vertex -4.5 29.1344 -1.3435
      vertex -4.5 42.6 15
      vertex -4.5 42.6 2.07792
    endloop
  endfacet
  facet normal -1 0 0
    outer loop
      vertex -4.5 29.1344 -1.3435
      vertex -4.5 42.6 2.07792
      vertex -4.5 28.4 -2.07792
    endloop
  endfacet
  facet normal -1 0 0
    outer loop
      vertex -4.5 42.6 2.07792
      vertex -4.5 41.8656 1.3435
      vertex -4.5 28.4 -2.07792
    endloop
  endfacet
  facet normal -1 0 0
    outer loop
      vertex -4.5 41.8656 1.3435
      vertex -4.5 42.6 0.609084
      vertex -4.5 28.4 -2.07792
    endloop
  endfacet
  facet normal -1 0 0
    outer loop
      vertex -4.5 42.6 0.609084
      vertex -4.5 42.6 -15
      vertex -4.5 28.4 -2.07792
    endloop
  endfacet
  facet normal -1 0 0
    outer loop
      vertex -4.5 42.6 -15
      vertex -4.5 28.4 -15
      vertex -4.5 28.4 -2.07792
    endloop
  endfacet
  facet normal 0 -1 0
    outer loop
      vertex -4.1 28.4 -15
      vertex -4.1 28.4 -2.07792
      vertex -4.5 28.4 -2.07792
    endloop
  endfacet
  facet normal 0 -1 0
    outer loop
      vertex -4.5 28.4 -15
      vertex -4.1 28.4 -15
      vertex -4.5 28.4 -2.07792
    endloop
  endfacet
  facet normal 0 0 -1
    outer loop
      vertex -4.1 42.6 -15
      vertex -4.1 28.4 -15
      vertex -4.5 42.6 -15
    endloop
  endfacet
  facet normal 0 0 -1
    outer loop
      vertex -4.5 42.6 -15
      vertex -4.1 28.4 -15
      vertex -4.5 28.4 -15
    endloop
  endfacet
  facet normal 0 -0.707107 0.707107
    outer loop
      vertex -4.1 28.4 -2.07792
      vertex -4.1 29.1344 -1.3435
      vertex -4.5 29.1344 -1.3435
    endloop
  endfacet
  facet normal 0 -0.707107 0.707107
    outer loop
      vertex -4.5 28.4 -2.07792
      vertex -4.1 28.4 -2.07792
      vertex -4.5 29.1344 -1.3435
    endloop
  endfacet
  facet normal 0 1 0
    outer loop
      vertex -4.1 42.6 0.609084
      vertex -4.1 42.6 -15
      vertex -4.5 42.6 0.609084
    endloop
  endfacet
  facet normal 0 1 0
    outer loop
      vertex -4.5 42.6 0.609084
      vertex -4.1 42.6 -15
      vertex -4.5 42.6 -15
    endloop
  endfacet
  facet normal 0 0.707107 0.707107
    outer loop
      vertex -4.1 41.8656 1.3435
      vertex -4.1 42.6 0.609084
      vertex -4.5 42.6 0.609084
    endloop
  endfacet
  facet normal 0 0.707107 0.707107
    outer loop
      vertex -4.5 41.8656 1.3435
      vertex -4.1 41.8656 1.3435
      vertex -4.5 42.6 0.609084
    endloop
  endfacet
  facet normal 0 0.707107 -0.707107
    outer loop
      vertex -4.1 42.6 2.07792
      vertex -4.1 41.8656 1.3435
      vertex -4.5 42.6 2.07792
    endloop
  endfacet
  facet normal 0 0.707107 -0.707107
    outer loop
      vertex -4.5 42.6 2.07792
      vertex -4.1 41.8656 1.3435
      vertex -4.5 41.8656 1.3435
    endloop
  endfacet
  facet normal 0 1 0
    outer loop
      vertex -4.1 42.6 15
      vertex -4.1 42.6 2.07792
      vertex -4.5 42.6 15
    endloop
  endfacet
  facet normal 0 1 0
    outer loop
      vertex -4.5 42.6 15
      vertex -4.1 42.6 2.07792
      vertex -4.5 42.6 2.07792
    endloop
  endfacet
  facet normal 0 0 1
    outer loop
      vertex -4.1 28.4 15
      vertex -4.1 42.6 15
      vertex -4.5 42.6 15
    endloop
  endfacet
  facet normal 0 0 1
    outer loop
      vertex -4.5 28.4 15
      vertex -4.1 28.4 15
      vertex -4.5 42.6 15
    endloop
  endfacet
  facet normal 0 -1 0
    outer loop
      vertex -4.1 28.4 -0.609084
      vertex -4.1 28.4 15
      vertex -4.5 28.4 15
    endloop
  endfacet
  facet normal 0 -1 0
    outer loop
      vertex -4.5 28.4 -0.609084
      vertex -4.1 28.4 -0.609084
      vertex -4.5 28.4 15
    endloop
  endfacet
  facet normal 0 -0.707107 -0.707107
    outer loop
      vertex -4.1 29.1344 -1.3435
      vertex -4.1 28.4 -0.609084
      vertex -4.5 29.1344 -1.3435
    endloop
  endfacet
  facet normal 0 -0.707107 -0.707107
    outer loop
      vertex -4.5 29.1344 -1.3435
      vertex -4.1 28.4 -0.609084
      vertex -4.5 28.4 -0.609084
    endloop
  endfacet
  facet normal 1 0 0
    outer loop
      vertex -4.1 42.6 -15
      vertex -4.1 42.6 0.609084
      vertex -4.1 41.8656 1.3435
    endloop
  endfacet
  facet normal 1 0 0
    outer loop
      vertex -4.1 28.4 15
      vertex -4.1 42.6 -15
      vertex -4.1 41.8656 1.3435
    endloop
  endfacet
  facet normal 1 0 0
    outer loop
      vertex -4.1 42.6 2.07792
      vertex -4.1 42.6 15
      vertex -4.1 41.8656 1.3435
    endloop
  endfacet
  facet normal 1 0 0
    outer loop
      vertex -4.1 42.6 15
      vertex -4.1 28.4 15
      vertex -4.1 41.8656 1.3435
    endloop
  endfacet
  facet normal 1 0 0
    outer loop
      vertex -4.1 28.4 15
      vertex -4.1 29.1344 -1.3435
      vertex -4.1 42.6 -15
    endloop
  endfacet
  facet normal 1 0 0
    outer loop
      vertex -4.1 28.4 15
      vertex -4.1 28.4 -0.609084
      vertex -4.1 29.1344 -1.3435
    endloop
  endfacet
  facet normal 1 0 0
    outer loop
      vertex -4.1 28.4 -2.07792
      vertex -4.1 28.4 -15
      vertex -4.1 42.6 -15
    endloop
  endfacet
  facet normal 1 0 0
    outer loop
      vertex -4.1 29.1344 -1.3435
      vertex -4.1 28.4 -2.07792
      vertex -4.1 42.6 -15
    endloop
  endfacet
endsolid OpenSCAD_Model
